<?xml version="1.0" encoding="UTF-8"?>
<svg width="30px" height="30px" viewBox="0 0 30 30" version="1.1" xmlns="http://www.w3.org/2000/svg" xmlns:xlink="http://www.w3.org/1999/xlink">
    <!-- Generator: Sketch 50.2 (55047) - http://www.bohemiancoding.com/sketch -->
    <title>al_1_slice</title>
    <desc>Created with Sketch.</desc>
    <defs></defs>
    <g id="Page-1" stroke="none" stroke-width="1" fill="none" fill-rule="evenodd">
        <g id="Artboard" transform="translate(-95.000000, 0.000000)">
            <g id="al_1" transform="translate(95.000000, 0.000000)">
                <rect id="Rectangle-3" stroke="#979797" fill="#D8D8D8" opacity="0" x="0.5" y="0.5" width="29" height="29"></rect>
                <path d="M22.4963438,2 C22.1860605,2 21.934199,2.2513874 21.934199,2.56193408 L21.934199,27.4378552 C21.934199,27.7486126 22.1860605,28 22.4963438,28 C22.8066271,28 23.0574877,27.7486653 23.0574877,27.4378552 L23.0574877,2.56193408 C23.0574877,2.2513874 22.8065744,2 22.4963438,2 Z M24.9678634,2 C24.657106,2 24.4057186,2.2513874 24.4057186,2.56193408 L24.4057186,27.4378552 C24.4056067,27.5869796 24.4647965,27.7300283 24.5702434,27.8354752 C24.6756903,27.9409221 24.818739,28.0001119 24.9678634,28 C25.2776725,28 25.5290073,27.7486653 25.5290073,27.4378552 L25.5290073,2.56193408 C25.5290073,2.2513874 25.2776725,2 24.9678634,2 Z M27.4388561,2 C27.1280987,2 26.8767113,2.2513874 26.8767113,2.56193408 L26.8767113,27.4378552 C26.8765994,27.5869796 26.9357893,27.7300283 27.0412361,27.8354752 C27.146683,27.9409221 27.2897318,28.0001119 27.4388561,28 C27.7486653,28 28,27.7486653 28,27.4378552 L28,2.56193408 C28,2.2513874 27.7486653,2 27.4388561,2 Z M8.50967988,2 L3.73342464,2 C2.77623496,2 2,2.77591889 2,3.73316127 L2,26.2662593 C2,27.2235016 2.77618229,27.9999473 3.73342464,27.9999473 L8.50967988,27.9999473 C9.46639543,27.9999473 10.2428411,27.2235016 10.2428411,26.2662593 L10.2428411,3.73321395 C10.2428411,2.7759716 9.4663954,2.00000003 8.50967988,2 Z M7.92925526,10.3301841 L4.31411269,10.3301841 C4.16498833,10.330296 4.02193956,10.2711061 3.91649269,10.1656593 C3.81104581,10.0602124 3.75185596,9.91716361 3.75196788,9.76803925 C3.75196788,9.45828279 4.00330261,9.20689536 4.31411269,9.20689539 L7.92925526,9.20689539 C8.23953854,9.20689539 8.49092594,9.45823012 8.49092591,9.76803925 C8.49087324,10.0787967 8.23948584,10.3301841 7.92925526,10.3301841 Z M7.92925526,7.51540375 L4.31411269,7.51540375 C4.00335528,7.51540375 3.75196788,7.26401635 3.75196788,6.95373309 C3.75196788,6.64397663 4.00330261,6.39206241 4.31411269,6.39206241 L7.92925526,6.39206241 C8.23953854,6.39206241 8.49092594,6.64392393 8.49092591,6.95373309 C8.49087324,7.26401638 8.23948584,7.51540378 7.92925526,7.51540375 Z M18.5775556,2 L13.8020906,2 C12.8443214,2 12.0684025,2.77591889 12.0684025,3.73316127 L12.0684025,26.2662593 C12.0684025,27.2235016 12.8443214,27.9999473 13.8020906,27.9999473 L18.5775556,27.9999473 C19.5353248,27.9999473 20.311191,27.2235016 20.311191,26.2662593 L20.311191,3.73321395 C20.311191,2.7759716 19.5353248,2.00000003 18.5775556,2 Z M17.9976051,10.3301841 L14.3825152,10.3301841 C14.0722319,10.3301841 13.8203704,10.0788493 13.8203704,9.76803925 C13.8203704,9.45828279 14.0722846,9.20689536 14.3825152,9.20689539 L17.9976051,9.20689539 C18.3083625,9.20689539 18.5592758,9.45823012 18.5592758,9.76803925 C18.5592758,10.0787967 18.3084152,10.3301841 17.9976051,10.3301841 Z M17.9976051,7.51540375 L14.3825152,7.51540375 C14.0722319,7.51540375 13.8203704,7.26401635 13.8203704,6.95373309 C13.8203704,6.64397663 14.0722846,6.39206241 14.3825152,6.39206241 L17.9976051,6.39206241 C18.3083625,6.39206241 18.5592758,6.64392393 18.5592758,6.95373309 C18.5592758,7.26401638 18.3084152,7.51540378 17.9976051,7.51540375 Z" id="Shape-Copy-3" fill="#999999" fill-rule="nonzero"></path>
            </g>
        </g>
    </g>
</svg>