<?xml version="1.0" encoding="UTF-8"?>
<svg width="124px" height="124px" viewBox="0 0 124 124" version="1.1" xmlns="http://www.w3.org/2000/svg" xmlns:xlink="http://www.w3.org/1999/xlink">
    <!-- Generator: Sketch 50.2 (55047) - http://www.bohemiancoding.com/sketch -->
    <title>33_slice</title>
    <desc>Created with Sketch.</desc>
    <defs></defs>
    <g id="Page-1" stroke="none" stroke-width="1" fill="none" fill-rule="evenodd">
        <g id="Artboard" transform="translate(-256.000000, -147.000000)">
            <g id="33" transform="translate(318.000000, 209.000000) rotate(30.000000) translate(-318.000000, -209.000000) translate(273.000000, 164.000000)">
                <g id="Group-9" transform="translate(44.796445, 45.000000) rotate(22.500000) translate(-44.796445, -45.000000) translate(10.510730, 10.945946)" fill="#FFC4A6">
                    <path d="M33.6734694,61.722973 C18.2883942,61.722973 5.81632653,49.335176 5.81632653,34.0540541 C5.81632653,18.7729321 18.2883942,6.38513514 33.6734694,6.38513514 C49.0585446,6.38513514 61.5306122,18.7729321 61.5306122,34.0540541 C61.5306122,49.335176 49.0585446,61.722973 33.6734694,61.722973 Z M33.6734694,59.8986486 C48.044144,59.8986486 59.6938776,48.3276295 59.6938776,34.0540541 C59.6938776,19.7804786 48.044144,8.20945946 33.6734694,8.20945946 C19.3027948,8.20945946 7.65306122,19.7804786 7.65306122,34.0540541 C7.65306122,48.3276295 19.3027948,59.8986486 33.6734694,59.8986486 Z" id="Oval-4" fill-rule="nonzero"></path>
                    <path d="M33.6734694,62.9391892 C17.6121272,62.9391892 4.59183673,50.0068737 4.59183673,34.0540541 C4.59183673,18.1012344 17.6121272,5.16891892 33.6734694,5.16891892 C49.7348116,5.16891892 62.755102,18.1012344 62.755102,34.0540541 C62.755102,50.0068737 49.7348116,62.9391892 33.6734694,62.9391892 Z M33.6734694,62.3310811 C49.3966781,62.3310811 62.1428571,49.6710249 62.1428571,34.0540541 C62.1428571,18.4370833 49.3966781,5.77702703 33.6734694,5.77702703 C17.9502607,5.77702703 5.20408163,18.4370833 5.20408163,34.0540541 C5.20408163,49.6710249 17.9502607,62.3310811 33.6734694,62.3310811 Z" id="Oval-4" fill-rule="nonzero"></path>
                    <path d="M33.9795918,46.8243243 C26.7130585,46.8243243 20.8163265,41.1102861 20.8163265,34.0540541 C20.8163265,26.997822 26.7130585,21.2837838 33.9795918,21.2837838 C41.2461252,21.2837838 47.1428571,26.997822 47.1428571,34.0540541 C47.1428571,41.1102861 41.2461252,46.8243243 33.9795918,46.8243243 Z M33.9795918,45.6081081 C40.5765328,45.6081081 45.9183673,40.4317754 45.9183673,34.0540541 C45.9183673,27.6763328 40.5765328,22.5 33.9795918,22.5 C27.3826509,22.5 22.0408163,27.6763328 22.0408163,34.0540541 C22.0408163,40.4317754 27.3826509,45.6081081 33.9795918,45.6081081 Z" id="Oval-4" fill-rule="nonzero"></path>
                    <g id="Group-8" transform="translate(10.408163, 10.337838)">
                        <g id="Group-7" transform="translate(18.979592, 0.000000)">
                            <polygon id="Star" points="4.89795918 7.2972973 2.01901101 8.80062322 2.56884118 5.61652782 0.239723185 3.36153895 3.4584851 2.89698569 4.89795918 0 6.33743327 2.89698569 9.55619518 3.36153895 7.22707718 5.61652782 7.77690736 8.80062322"></polygon>
                            <polygon id="Star" transform="translate(4.897959, 42.567568) scale(1, -1) translate(-4.897959, -42.567568) " points="4.89795918 45 2.01901101 46.5033259 2.56884118 43.3192305 0.239723185 41.0642416 3.4584851 40.5996884 4.89795918 37.7027027 6.33743327 40.5996884 9.55619518 41.0642416 7.22707718 43.3192305 7.77690736 46.5033259"></polygon>
                        </g>
                        <g id="Group-7" transform="translate(23.877551, 23.716216) rotate(90.000000) translate(-23.877551, -23.716216) translate(18.979592, 0.000000)">
                            <polygon id="Star" points="4.89795918 7.2972973 2.01901101 8.80062322 2.56884118 5.61652782 0.239723185 3.36153895 3.4584851 2.89698569 4.89795918 0 6.33743327 2.89698569 9.55619518 3.36153895 7.22707718 5.61652782 7.77690736 8.80062322"></polygon>
                            <polygon id="Star" transform="translate(4.897959, 42.567568) scale(1, -1) translate(-4.897959, -42.567568) " points="4.89795918 45 2.01901101 46.5033259 2.56884118 43.3192305 0.239723185 41.0642416 3.4584851 40.5996884 4.89795918 37.7027027 6.33743327 40.5996884 9.55619518 41.0642416 7.22707718 43.3192305 7.77690736 46.5033259"></polygon>
                        </g>
                    </g>
                    <g id="Group-8" transform="translate(34.285714, 34.054054) rotate(45.000000) translate(-34.285714, -34.054054) translate(10.408163, 10.337838)">
                        <g id="Group-7" transform="translate(18.979592, 0.000000)">
                            <polygon id="Star" points="4.89795918 7.2972973 2.01901101 8.80062322 2.56884118 5.61652782 0.239723185 3.36153895 3.4584851 2.89698569 4.89795918 0 6.33743327 2.89698569 9.55619518 3.36153895 7.22707718 5.61652782 7.77690736 8.80062322"></polygon>
                            <polygon id="Star" transform="translate(4.897959, 42.567568) scale(1, -1) translate(-4.897959, -42.567568) " points="4.89795918 45 2.01901101 46.5033259 2.56884118 43.3192305 0.239723185 41.0642416 3.4584851 40.5996884 4.89795918 37.7027027 6.33743327 40.5996884 9.55619518 41.0642416 7.22707718 43.3192305 7.77690736 46.5033259"></polygon>
                        </g>
                        <g id="Group-7" transform="translate(23.877551, 23.716216) rotate(90.000000) translate(-23.877551, -23.716216) translate(18.979592, 0.000000)">
                            <polygon id="Star" points="4.89795918 7.2972973 2.01901101 8.80062322 2.56884118 5.61652782 0.239723185 3.36153895 3.4584851 2.89698569 4.89795918 0 6.33743327 2.89698569 9.55619518 3.36153895 7.22707718 5.61652782 7.77690736 8.80062322"></polygon>
                            <polygon id="Star" transform="translate(4.897959, 42.567568) scale(1, -1) translate(-4.897959, -42.567568) " points="4.89795918 45 2.01901101 46.5033259 2.56884118 43.3192305 0.239723185 41.0642416 3.4584851 40.5996884 4.89795918 37.7027027 6.33743327 40.5996884 9.55619518 41.0642416 7.22707718 43.3192305 7.77690736 46.5033259"></polygon>
                        </g>
                    </g>
                </g>
                <path d="M17.4642857,35.8251036 L70.6989796,35.8251036 C71.8972503,39.2038812 72.4963857,42.0975914 72.4963857,44.5062342 C72.4963857,46.9148769 72.0559308,49.8085871 71.1750209,53.1873647 L17.4642857,53.1873647 C16.6006648,49.3712424 16.1688544,46.4775322 16.1688544,44.5062342 C16.1688544,42.5349361 16.6006648,39.6412259 17.4642857,35.8251036 Z" id="Rectangle-8" fill="#FFFFFF"></path>
                <text id="已就诊" font-family="PingFangSC-Semibold, PingFang SC" font-size="14" font-weight="500" letter-spacing="6.5" fill="#FFC4A6">
                    <tspan x="16.5" y="50">已就</tspan>
                    <tspan x="57.5" y="50">诊</tspan>
                </text>
            </g>
        </g>
    </g>
</svg>