<?xml version="1.0" encoding="UTF-8"?>
<svg width="26px" height="26px" viewBox="0 0 26 26" version="1.1" xmlns="http://www.w3.org/2000/svg" xmlns:xlink="http://www.w3.org/1999/xlink">
    <!-- Generator: Sketch 50.2 (55047) - http://www.bohemiancoding.com/sketch -->
    <title>dh_slice</title>
    <desc>Created with Sketch.</desc>
    <defs></defs>
    <g id="Page-1" stroke="none" stroke-width="1" fill="none" fill-rule="evenodd">
        <g id="Artboard" transform="translate(-16.000000, -372.000000)" fill-rule="nonzero">
            <g id="dh" transform="translate(16.000000, 372.000000)">
                <rect id="Rectangle-path" fill="#000000" opacity="0" x="0" y="0" width="26" height="26"></rect>
                <path d="M23.2450564,19.5335677 C23.2450564,23.5625 21.4143833,23.5625 12.5937531,23.5625 C3.77317335,23.5625 1.94244994,23.5625 1.94244994,19.5335677 C1.94244994,15.1689079 6.76879733,6.43953759 12.5937531,6.43953759 C18.4186586,6.43953759 23.2450564,15.1689079 23.2450564,19.5335677 Z M12.5937531,8.28611465 C10.0973579,8.28611465 8.10024169,10.3005808 8.10024169,12.8186635 C8.10024169,15.3367462 10.0973579,17.3512124 12.5937531,17.3512124 C15.0901484,17.3512124 17.0872646,15.3367462 17.0872646,12.8186635 C17.0872646,10.3005808 15.0901484,8.28611465 12.5937531,8.28611465 Z M3.2738943,11.6435921 C5.10456738,8.62189285 8.26668482,5.4323045 12.5937531,5.4323045 C16.9208215,5.4323045 20.4157748,8.95762029 21.913612,11.6435921 C22.745727,12.9865526 24.2435641,12.8187143 24.9092863,11.6435921 C25.4085654,10.8042481 26.7399594,3.25 12.5937531,3.25 C-1.55250341,3.25 -0.221059058,10.9721372 0.278219994,11.6435921 C1.2767781,12.9865526 2.94105838,12.3150977 3.2738943,11.6435921 Z" id="Shape" fill="#1DC534"></path>
            </g>
        </g>
    </g>
</svg>