<?xml version="1.0" encoding="UTF-8"?>
<svg width="26px" height="26px" viewBox="0 0 26 26" version="1.1" xmlns="http://www.w3.org/2000/svg" xmlns:xlink="http://www.w3.org/1999/xlink">
    <!-- Generator: Sketch 50.2 (55047) - http://www.bohemiancoding.com/sketch -->
    <title>dizhi_slice</title>
    <desc>Created with Sketch.</desc>
    <defs></defs>
    <g id="Page-1" stroke="none" stroke-width="1" fill="none" fill-rule="evenodd">
        <g id="Artboard" transform="translate(-16.000000, -433.000000)" fill="#138AED" fill-rule="nonzero">
            <g id="dizhi" transform="translate(16.000000, 433.000000)">
                <rect id="Rectangle-path" opacity="0" x="0" y="0" width="26" height="26"></rect>
                <path d="M12.5277778,0.8125 C8.30555556,0.8125 4.875,4.16158537 4.875,8.34794207 C4.875,12.4698933 9.03125,17.6867378 12.59375,21.9375 C16.0902778,17.6223323 20.3125,12.5342988 20.3125,8.34794207 C20.2465278,4.16158537 16.8159722,0.8125 12.5277778,0.8125 Z M12.5277778,13.3071646 C9.69097222,13.3071646 7.44791667,11.0529726 7.44791667,8.34794207 C7.44791667,5.5785061 9.75694444,3.38871951 12.5277778,3.38871951 C15.3645833,3.38871951 17.6076389,5.64291159 17.6076389,8.34794207 C17.6736111,11.117378 15.3645833,13.3071646 12.5277778,13.3071646 Z" id="Shape"></path>
                <path d="M9.75,8.53125 C9.75,9.30681818 10.0731534,10.0177557 10.5901989,10.5348011 C11.1072443,11.0518466 11.8828125,11.375 12.59375,11.375 C13.3693182,11.375 14.0802557,11.0518466 14.5973011,10.5348011 C15.1143466,10.0177557 15.4375,9.2421875 15.4375,8.53125 C15.4375,7.75568182 15.1143466,7.04474432 14.5973011,6.52769886 C14.0802557,6.01065341 13.3046875,5.6875 12.59375,5.6875 C11.8181818,5.6875 11.1072443,6.01065341 10.5901989,6.52769886 C10.0731534,7.04474432 9.75,7.75568182 9.75,8.53125 Z" id="Shape"></path>
                <path d="M12.9040984,25.1875 C8.10901639,25.1875 3.25,23.6818209 3.25,20.8586726 C3.25,19.2902569 4.84836066,17.9727877 7.66147541,17.1572115 C8.17295082,17.0317382 8.68442623,17.2826847 8.81229508,17.7845778 C8.94016393,18.2864708 8.68442623,18.7883638 8.17295082,18.9138371 C6.06311475,19.4784668 5.10409836,20.2940429 5.10409836,20.8586726 C5.10409836,21.8624587 8.17295082,23.3681378 12.9680328,23.3681378 C17.7631148,23.3681378 20.8319672,21.8624587 20.8319672,20.8586726 C20.8319672,20.2940429 19.6811475,19.4157301 17.5713115,18.8511005 C17.0598361,18.7256272 16.8040984,18.2237342 16.9319672,17.7218411 C17.0598361,17.2199481 17.5713115,16.9690016 18.0827869,17.0944749 C21.0237705,17.8473144 22.75,19.2275202 22.75,20.8586726 C22.5581967,23.6818209 17.6991803,25.1875 12.9040984,25.1875 Z" id="Shape"></path>
            </g>
        </g>
    </g>
</svg>