<?xml version="1.0" encoding="UTF-8"?>
<svg width="7px" height="14px" viewBox="0 0 7 14" version="1.1" xmlns="http://www.w3.org/2000/svg" xmlns:xlink="http://www.w3.org/1999/xlink">
    <!-- Generator: Sketch 50.2 (55047) - http://www.bohemiancoding.com/sketch -->
    <title>1_slice</title>
    <desc>Created with Sketch.</desc>
    <defs></defs>
    <g id="Page-1" stroke="none" stroke-width="1" fill="none" fill-rule="evenodd">
        <g id="Artboard" transform="translate(-342.000000, -511.000000)" fill="#000000" fill-rule="nonzero">
            <g id="1" transform="translate(342.000000, 511.000000)">
                <path d="M6.43123473,5.6877169 L1.54201239,0.262610222 C1.38561239,0.0949181406 1.16868332,1.42308318e-17 0.941834282,0 C0.71498524,-1.42308318e-17 0.498056174,0.0949181406 0.34165617,0.262610222 C0.177340848,0.422224318 0.084334043,0.643611374 0.084334043,0.875122265 C0.084334043,1.10663315 0.177340848,1.32802021 0.34165617,1.48763431 L5.22950668,6.91274099 C5.31456049,6.99954269 5.31456049,7.08774443 5.22950668,7.08774443 L0.256602361,12.5128511 C0.0927247072,12.672423 0,12.8935047 0,13.1246631 C0,13.3558216 0.0927247072,13.5769033 0.256602361,13.7364752 C0.515879302,13.9128786 0.685986932,13.9996803 0.857466383,13.9996803 C1.08591713,14.0062929 1.30565747,13.9100369 1.45833042,13.7364752 L6.34480908,8.31276852 C6.74204449,8.00450014 6.98230391,7.53019957 6.99906205,7.02119558 C7.0158202,6.51219159 6.80729862,6.02250209 6.43123473,5.6877169 Z" id="Shape"></path>
            </g>
        </g>
    </g>
</svg>