<?xml version="1.0" encoding="UTF-8"?>
<svg width="30px" height="30px" viewBox="0 0 30 30" version="1.1" xmlns="http://www.w3.org/2000/svg" xmlns:xlink="http://www.w3.org/1999/xlink">
    <!-- Generator: Sketch 50.2 (55047) - http://www.bohemiancoding.com/sketch -->
    <title>hd_slice</title>
    <desc>Created with Sketch.</desc>
    <defs></defs>
    <g id="Page-1" stroke="none" stroke-width="1" fill="none" fill-rule="evenodd">
        <g id="Artboard" transform="translate(-187.000000, -61.000000)" fill-rule="nonzero">
            <g id="hd" transform="translate(187.000000, 61.000000)">
                <rect id="Rectangle-path" fill="#000000" opacity="0" x="0" y="0" width="30" height="30"></rect>
                <path d="M15.9230769,17.4724909 L15.9230769,26.1338628 C15.9230769,26.3635767 16.0203294,26.5838821 16.1934399,26.7463143 C16.3665504,26.9087465 16.6013386,27 16.8461539,27 L23.3076923,27 C24.3272949,27 25.1538462,26.2244343 25.1538462,25.2677256 L25.1538462,17.4724909 C25.1538462,17.2427771 25.0565937,17.0224717 24.8834832,16.8600395 C24.7103727,16.6976072 24.4755845,16.6063538 24.2307692,16.6063538 L16.8461539,16.6063538 C16.6013386,16.6063538 16.3665504,16.6976072 16.1934399,16.8600395 C16.0203294,17.0224717 15.9230769,17.2427771 15.9230769,17.4724909 Z M13.1538461,16.6063538 L5.76923077,16.6063538 C5.52441555,16.6063538 5.28962732,16.6976072 5.11651681,16.8600395 C4.9434063,17.0224717 4.84615383,17.2427771 4.84615383,17.4724909 L4.84615383,25.2677256 C4.84615383,26.2244343 5.67270507,27 6.69230769,27 L13.1538461,27 C13.3986614,27 13.6334496,26.9087465 13.8065601,26.7463143 C13.9796706,26.5838821 14.0769231,26.3635767 14.0769231,26.1338628 L14.0769231,17.4724909 C14.0769231,17.2427771 13.9796706,17.0224717 13.8065601,16.8600395 C13.6334496,16.6976072 13.3986614,16.6063538 13.1538461,16.6063538 Z M25.1538462,7.94498188 L23.3238462,7.94498188 C23.7606002,7.45899732 24.0531891,6.87361932 24.1721539,6.24778608 C24.3887384,5.08502877 23.988374,3.89614041 23.0990769,3.06126736 C21.8944405,1.9332806 20.0458934,1.67597618 18.5441538,2.42725494 C17.778,2.8070561 17.1923077,3.44496614 16.8244615,4.18118274 L15,7.83108485 L13.1603077,4.15173408 C12.8543077,3.53937508 12.3969231,2.99370866 11.7964615,2.61997047 C10.1833846,1.61611748 8.15953845,1.87985625 6.90092306,3.06126736 C6.0117634,3.89621865 5.61142197,5.0850388 5.82784614,6.24778608 C5.94681087,6.87361932 6.23939978,7.45899732 6.67615385,7.94498188 L4.84615383,7.94498188 C3.82655122,7.9449819 3,8.72054755 3,9.67725626 L3,13.141805 C3,14.0985137 3.82655122,14.8740794 4.84615383,14.8740794 L13.1538461,14.8740794 C13.3986614,14.8740794 13.6334496,14.7828259 13.8065601,14.6203937 C13.9796706,14.4579615 14.0769231,14.2376561 14.0769231,14.0079422 L14.0769231,10.5715429 C14.0769231,10.1402066 14.3912308,9.74005122 14.8449231,9.67076023 C15.1130191,9.62834808 15.3874198,9.69882062 15.5951274,9.86343037 C15.8028351,10.0280401 15.9227885,10.2700958 15.9230769,10.5252046 L15.9230769,14.0079422 C15.9230769,14.2376561 16.0203294,14.4579615 16.1934399,14.6203937 C16.3665504,14.7828259 16.6013386,14.8740794 16.8461539,14.8740794 L25.1538462,14.8740794 C26.1734488,14.8740794 27,14.0985137 27,13.141805 L27,9.67725626 C27,8.72054755 26.1734488,7.9449819 25.1538462,7.94498188 Z M10.1616923,7.94498188 L8.77523077,7.33478824 C8.17803407,7.07634476 7.75536734,6.5578706 7.64584614,5.9494018 C7.52844879,5.3422136 7.73793769,4.7197796 8.2056923,4.28598535 C8.6674405,3.84621946 9.33128906,3.6495059 9.97846154,3.76067314 C10.6268994,3.86320677 11.1795007,4.25967002 11.4549231,4.81995893 L13.0172308,7.94498188 L10.1616923,7.94498188 Z M22.3536923,5.9494018 C22.2445704,6.55790299 21.8219952,7.07647683 21.2247692,7.33478824 L19.8383077,7.94498188 L16.9823077,7.94498188 L18.5446154,4.81995893 C18.8199974,4.25945966 19.372862,3.8629315 20.0215385,3.76067314 C20.6685509,3.64981319 21.332111,3.84649249 21.7938461,4.28598535 C22.2618836,4.71961737 22.4714205,5.34219399 22.3536923,5.9494018 Z" id="Shape" fill="#FF8E12"></path>
            </g>
        </g>
    </g>
</svg>