<?xml version="1.0" encoding="UTF-8"?>
<svg width="36px" height="36px" viewBox="0 0 36 36" version="1.1" xmlns="http://www.w3.org/2000/svg" xmlns:xlink="http://www.w3.org/1999/xlink">
    <!-- Generator: Sketch 50.2 (55047) - http://www.bohemiancoding.com/sketch -->
    <title>icon_children_slice</title>
    <desc>Created with Sketch.</desc>
    <defs></defs>
    <g id="Page-1" stroke="none" stroke-width="1" fill="none" fill-rule="evenodd">
        <g id="Artboard" transform="translate(-185.000000, -108.000000)">
            <g id="icon_children" transform="translate(185.000000, 108.000000)">
                <rect id="Rectangle-4-Copy-10" x="0" y="0" width="36" height="36"></rect>
                <path d="M18.4333654,20.1851748 C18.1648077,20.8215385 17.8982692,21.219021 17.8235577,21.6478322 C17.52875,23.6372028 17.2682692,25.6344056 17.0158654,27.6296503 C16.89875,28.5636364 16.9674038,29.5387413 16.715,30.4316084 C16.3050962,31.8942657 14.69375,32.4092308 13.5326923,31.394965 C12.7908151,30.743601 12.2503875,29.9049838 11.9718269,28.9728671 C11.5610657,27.3278978 11.2989202,25.6513456 11.1883654,23.9622378 C10.91375,20.4925874 10.4796154,17.0934266 8.65221154,13.986014 C8.25094381,13.2360306 8.06277146,12.395992 8.10701923,11.5521678 C8.20596154,9.15160839 9.24788462,7.06629371 10.8814423,5.30405594 C11.8223539,4.25718691 13.3037448,3.83410283 14.6796154,4.2193007 C17.1508756,4.87925829 19.7594093,4.88466751 22.2335577,4.23496503 C24.0670192,3.77678322 25.7167308,4.44643357 26.6758654,6.02265734 C27.5279808,7.43636364 28.1640385,9.00083916 28.7395192,10.5516084 C29.1475451,11.6875897 28.9988523,12.942016 28.3356731,13.9586014 C26.24375,17.3342657 25.9913462,21.1093706 25.6723077,24.8883916 C25.5457668,26.2828569 25.3238359,27.6676306 25.0079808,29.0335664 C24.8247299,29.6943635 24.5166309,30.3164539 24.0993269,30.8682517 C23.5258654,31.6867133 22.6777885,32.0509091 21.6419231,31.812028 C20.6504808,31.5848951 20.2001923,30.8388811 20.0729808,29.9675524 C19.9376923,29.0394406 20.0588462,28.0760839 19.9255769,27.146014 C19.6307692,25.093986 19.2531731,23.0517483 18.8897115,21.0095105 C18.8533654,20.8 18.6776923,20.6159441 18.4333654,20.1851748 Z M21.8458654,30.2495105 L22.4011538,30.3787413 C22.7383654,29.7913287 23.2532692,29.2274126 23.3804808,28.594965 C23.7054543,26.9657564 23.9380153,25.3204873 24.0771154,23.6665734 C24.3900962,20.0716084 24.8969231,16.5569231 26.7425,13.3163636 C27.1463462,12.5997203 27.2291346,11.511049 27.0211538,10.7004196 C26.7000962,9.46097902 26.0721154,8.27440559 25.4400962,7.13482517 C24.8464423,6.06377622 23.8247115,5.58993007 22.5505769,5.80923077 C21.9448077,5.91104895 21.3592308,6.00503497 20.7736538,6.15972028 C19.2722048,6.54996513 17.6918822,6.55468862 16.1879808,6.17342657 C15.6367308,6.03244755 15.0774038,5.91496503 14.5160577,5.81118881 C13.3489423,5.59776224 12.3453846,5.92083916 11.6891346,6.88223776 C11.1756836,7.68239063 10.7170033,8.51439243 10.3160577,9.37286713 C9.54471154,10.9099301 9.66384615,12.3569231 10.4250962,13.9507692 C11.2867985,15.7453374 11.9246701,17.6331726 12.3251923,19.5742657 C12.7936538,21.9004196 12.8441346,24.3029371 13.1611538,26.6604196 C13.3163841,27.6227021 13.5735128,28.5669014 13.9284615,29.478042 C14.0375,29.7815385 14.4797115,29.9714685 14.7684615,30.2123077 C14.9582692,29.9048951 15.2793269,29.6072727 15.3075962,29.2861538 C15.3823077,28.4128671 15.3257692,27.5239161 15.3358654,26.6486713 C15.3621154,24.3793007 15.7235577,22.1686713 16.63625,20.0676923 C16.9593269,19.3197203 17.4318269,18.7577622 18.42125,18.7303497 C19.4611538,18.700979 19.9578846,19.2766434 20.3031731,20.0598601 C20.5798077,20.6864336 20.88875,21.3365035 20.9695192,22.0002797 C21.2320192,24.1267133 21.3875,26.2648951 21.5975,28.3972028 C21.6580769,29.0179021 21.7610577,29.6327273 21.8458654,30.2495105 Z M18.2920192,17.8355245 C16.9775,17.8746853 15.7316346,17.3753846 14.6816346,16.4276923 C14.5221154,16.2925874 14.5423077,15.9518881 14.4797115,15.7051748 C14.7139423,15.7443357 14.9925962,15.714965 15.1743269,15.8324476 C17.7932692,17.5144056 19.1077885,17.5124476 21.7873077,15.8324476 C21.9730769,15.7090909 22.2557692,15.7462937 22.4940385,15.7090909 C22.4253846,15.9558042 22.4354808,16.2847552 22.2739423,16.4355245 C21.20375,17.4243357 19.9074038,17.860979 18.2920192,17.8355245 Z M15.8184615,11.325035 C15.3156731,11.8811189 14.9623077,12.2766434 14.6069231,12.6702098 C14.3363462,12.165035 13.8779808,11.6676923 13.8577885,11.1546853 C13.8416346,10.7337063 14.3504808,10.2931469 14.6250962,9.86237762 C14.9804808,10.2951049 15.3338462,10.7376224 15.8184615,11.325035 Z M23.4430769,11.2976224 L22.3143269,12.6525874 C22.0255769,12.2041958 21.5833654,11.7695105 21.5066346,11.281958 C21.4177885,10.7102098 21.4985577,9.87216783 22.3385577,9.92699301 C22.6919231,9.96027972 22.9948077,10.7102098 23.4430769,11.2976224 Z" id="Combined-Shape" fill="#FF8000" fill-rule="nonzero"></path>
            </g>
        </g>
    </g>
</svg>