<?xml version="1.0" encoding="UTF-8"?>
<svg width="36px" height="36px" viewBox="0 0 36 36" version="1.1" xmlns="http://www.w3.org/2000/svg" xmlns:xlink="http://www.w3.org/1999/xlink">
    <!-- Generator: Sketch 50.2 (55047) - http://www.bohemiancoding.com/sketch -->
    <title>icon_correct_slice</title>
    <desc>Created with Sketch.</desc>
    <defs></defs>
    <g id="Page-1" stroke="none" stroke-width="1" fill="none" fill-rule="evenodd">
        <g id="Artboard" transform="translate(-185.000000, 0.000000)">
            <g id="icon_correct" transform="translate(185.000000, 0.000000)">
                <rect id="Rectangle-4-Copy-12" x="0" y="0" width="36" height="36"></rect>
                <path d="M27.2832143,17.0496774 C27.5645005,16.3301299 27.8867685,15.6258501 28.2485714,14.94 C28.8233333,13.9548387 29.6085714,13.1245161 30.92,13.1535484 C32.1788095,13.1806452 32.9235714,14.0012903 33.4841667,14.9516129 C34.6842857,16.9819355 34.9453571,19.2212903 34.8725,21.4935484 C34.8603571,21.8632258 34.4454762,22.3780645 34.0771429,22.5483871 C32.0432143,23.4851613 29.8534524,23.8664516 27.6009524,23.876129 C21.269127,23.9006452 14.9352778,23.9006452 8.59940476,23.876129 C6.25583333,23.876129 3.96083333,23.5412903 1.83178571,22.5483871 C1.48571429,22.3877419 1.09309524,21.9193548 1.07690476,21.5806452 C0.973690476,19.3393548 1.20440476,17.1290323 2.34380952,15.1122581 C2.63885429,14.6082554 3.01985008,14.1549216 3.47107143,13.7709677 C4.45464286,12.9154839 5.72964286,12.8651613 6.64440476,13.7864516 C7.32035714,14.4658065 7.75952381,15.3658065 8.26345238,16.1883871 C8.42926632,16.5023738 8.56474963,16.8301868 8.66821429,17.1677419 C9.24297619,16.0451613 9.69833333,14.8451613 10.4127381,13.8212903 C12.0520238,11.4580645 14.4603571,11.4445161 16.1117857,13.8212903 C16.9213095,14.9825806 17.3969048,16.3277419 18.0364286,17.6148387 C18.2145238,17.1154839 18.350119,16.5251613 18.627381,16.0064516 C19.1454762,15.0387097 19.615,14.0051613 20.3415476,13.1941935 C21.7582143,11.6129032 23.7820238,11.6458065 25.0813095,13.3219355 C25.99,14.4774194 26.5971429,15.8574194 27.2832143,17.0496774 Z M17.0184524,19.563871 C16.5752381,17.2683871 16.1259524,15.3890323 14.6829762,13.9006452 C13.782381,12.9754839 12.8230952,12.9251613 11.9609524,13.796129 C10.4592857,15.3116129 9.91892857,17.2141935 9.60321429,19.3587097 C10.8782143,19.1554839 12.1005952,19.7187097 13.2015476,18.8864516 C13.377619,18.7548387 13.7742857,18.8303226 14.0515476,18.8864516 C14.9622619,19.0741935 15.864881,19.2967742 17.0184524,19.563871 Z M26.3279762,19.3412903 C26.0142857,17.2470968 25.4961905,15.3658065 24.0309524,13.8696774 C23.1242857,12.9348387 22.1346429,12.9619355 21.2340476,13.9025806 C19.7930952,15.4103226 19.3296429,17.2935484 18.9491667,19.5774194 C20.1492857,19.3083871 21.1186905,19.0741935 22.0941667,18.8806452 C22.3734524,18.8206452 22.7761905,18.7451613 22.9502381,18.8806452 C23.9803571,19.6916129 25.129881,19.1883871 26.3279762,19.3412903 Z M28.0461905,22.68 C29.9283333,22.7225806 31.6708333,22.3006452 33.3586905,21.6503226 C33.5508323,21.5398395 33.6769387,21.3488851 33.6986905,21.1354839 C33.7108333,19.023871 33.4639286,16.9470968 32.1808333,15.1354839 C31.3490476,13.9683871 30.3938095,13.9858065 29.527619,15.1587097 C28.6290476,16.3722581 28.2971429,17.7735484 28.0947619,19.5270968 C29.1410714,19.3025806 30.0436905,19.0490323 30.9625,18.9464516 C31.4279762,18.8941935 32.0857143,18.9735484 32.3609524,19.256129 C32.6017857,19.5019355 32.6159524,20.2741935 32.3852381,20.5316129 C32.1221429,20.823871 31.4583333,20.9477419 31.0029762,20.8935484 C30.0497619,20.7793548 29.1188095,20.4987097 28.0461905,20.2567742 L28.0461905,22.68 Z M7.62595238,19.5096774 L7.97202381,19.1245161 C7.53083333,17.9225806 7.1847619,16.6780645 6.60595238,15.54 C6.3347619,15.0077419 5.59202381,14.3341935 5.1002381,14.3593548 C4.53357143,14.396129 3.82321429,15.0135484 3.48119048,15.5574194 C2.42880952,17.2296774 2.19607143,19.1283871 2.22642857,21.0522581 C2.24257615,21.2928607 2.37500841,21.5125347 2.58464286,21.6464516 C4.26845238,22.3045161 6.00690476,22.7206452 7.91130952,22.6703226 C7.91130952,22.2116129 7.92142857,21.8477419 7.91130952,21.5090323 C7.90119048,21.1703226 7.87285714,20.8316129 7.83642857,20.2219355 C6.79011905,20.4890323 5.93,20.7812903 5.04559524,20.9032258 C4.62059524,20.9612903 3.93047619,20.8296774 3.75238095,20.5529032 C3.53642597,20.1222371 3.54845717,19.6188445 3.7847619,19.1980645 C3.98107143,18.9290323 4.67119048,18.8574194 5.10833333,18.9154839 C5.96035714,19.0316129 6.78809524,19.3025806 7.62595238,19.5096774 Z M9.29964286,22.6858065 L17.0892857,22.6858065 L17.0892857,20.2393548 C15.9660714,20.4948387 15.0007143,20.7309677 14.0292857,20.9245161 C13.75,20.9806452 13.3553571,21.0483871 13.1732143,20.9129032 C12.0054762,20.0496774 10.7203571,20.6303226 9.40285714,20.4367742 L9.29964286,22.6858065 Z M26.5,22.6916129 L26.5,20.4212903 C25.2614286,20.6709677 24.0370238,20.0593548 22.940119,20.9303226 C22.7620238,21.0658065 22.2257143,21.0290323 22.0132143,20.8722581 C20.9932143,20.1154839 19.9145238,20.5819355 18.7994048,20.4851613 L18.7994048,22.6916129 L26.5,22.6916129 Z" id="Combined-Shape" fill="#6FCD16" fill-rule="nonzero"></path>
            </g>
        </g>
    </g>
</svg>