<?xml version="1.0" encoding="UTF-8"?>
<svg width="36px" height="36px" viewBox="0 0 36 36" version="1.1" xmlns="http://www.w3.org/2000/svg" xmlns:xlink="http://www.w3.org/1999/xlink">
    <!-- Generator: Sketch 50.2 (55047) - http://www.bohemiancoding.com/sketch -->
    <title>icon_gums_slice</title>
    <desc>Created with Sketch.</desc>
    <defs></defs>
    <g id="Page-1" stroke="none" stroke-width="1" fill="none" fill-rule="evenodd">
        <g id="Artboard" transform="translate(0.000000, -108.000000)">
            <g id="icon_gums" transform="translate(0.000000, 108.000000)">
                <rect id="Rectangle-4-Copy-6" x="0" y="0" width="36" height="36"></rect>
                <path d="M18.2940076,20.6758548 C17.9709307,21.6324521 17.6014115,22.3312715 17.5125653,23.0643271 C17.2581422,25.150716 17.1309307,27.253216 16.9310268,29.3456465 C16.8643922,30.0424521 16.8300653,30.769466 16.5938153,31.4139104 C16.1112191,32.726966 14.6129499,33.2264104 13.5770845,32.3080771 C12.8218922,31.6334243 12.1131422,30.6627298 11.874873,29.7041187 C11.4165076,27.8634243 11.2388153,25.9421743 11.0671807,24.0430771 C10.7521807,20.583216 10.2352576,17.1958548 8.53910376,14.0783548 C8.14140715,13.3032119 7.95809367,12.4363405 8.00804607,11.5670354 C8.15746915,9.2289104 9.10448838,7.13647985 10.6128538,5.36627151 C11.5639115,4.2445354 12.8824691,3.85786873 14.3484307,4.0451604 C14.7511336,4.07914321 15.1503007,4.14650549 15.5417961,4.24654929 C17.4317961,4.83259096 19.2935268,4.74397985 21.2077576,4.27272985 C24.2366038,3.52557707 26.0155461,4.38752151 27.3664115,7.1807854 C27.8833006,8.26954709 28.3107608,9.39834336 28.6445845,10.5560632 C29.0099654,11.765284 28.8579661,13.0713523 28.2245845,14.1649521 C26.5869884,17.0387715 26.0902576,20.2066187 25.7510268,23.4167576 C25.5289115,25.513216 25.2684307,27.6076604 24.9433345,29.6900215 C24.8177162,30.2808521 24.5865332,30.8443197 24.2608345,31.3534937 C23.6308345,32.4611326 22.663623,32.9162715 21.5792961,32.7048132 C20.7191038,32.5356465 20.0507384,31.748216 19.9235268,30.5398826 C19.8185268,29.5430076 19.959873,28.5259937 19.8225653,27.5311326 C19.5499691,25.549466 19.172373,23.5818965 18.8129499,21.6143271 C18.7766038,21.3666187 18.5746807,21.1591882 18.2940076,20.6758548 Z M22.4253538,16.9562021 C24.8524691,17.3046048 24.8504499,17.3046048 25.7490076,15.3068271 C25.9022738,14.9342518 26.0866731,14.5751865 26.3002576,14.2334243 C27.336123,12.6907854 27.3502576,11.0977993 26.5728538,9.45849373 C26.2457384,8.76168818 25.9489115,8.04272985 25.5632384,7.37814651 C24.6969884,5.87981318 23.6813153,5.33807707 22.0275653,5.78717429 C19.6239423,6.47640948 17.0733187,6.46942464 14.6735268,5.7670354 C13.371123,5.3864104 12.1616038,5.75293818 11.4649691,7.02168818 C10.875711,8.10952747 10.3485254,9.22969081 9.88593069,10.3768271 C9.41343069,11.5327993 9.60727684,12.6585632 10.2029499,13.7601604 C10.6794884,14.6422437 11.0227576,15.5927993 11.4669884,16.4950215 C11.5800653,16.722591 11.8344884,17.0065493 12.0545845,17.0347437 C12.6787059,17.0826501 13.3052289,17.0913942 13.9304499,17.0609243 L13.9304499,13.3312021 L22.4253538,13.3312021 L22.4253538,16.9562021 Z" id="Combined-Shape" fill="#FFAA00" fill-rule="nonzero"></path>
            </g>
        </g>
    </g>
</svg>