<?xml version="1.0" encoding="UTF-8"?>
<svg width="36px" height="36px" viewBox="0 0 36 36" version="1.1" xmlns="http://www.w3.org/2000/svg" xmlns:xlink="http://www.w3.org/1999/xlink">
    <!-- Generator: Sketch 50.2 (55047) - http://www.bohemiancoding.com/sketch -->
    <title>icon_tooth_filling_slice</title>
    <desc>Created with Sketch.</desc>
    <defs></defs>
    <g id="Page-1" stroke="none" stroke-width="1" fill="none" fill-rule="evenodd">
        <g id="Artboard" transform="translate(0.000000, -162.000000)">
            <g id="icon_tooth_filling" transform="translate(0.000000, 162.000000)">
                <rect id="Rectangle-4-Copy-5" x="0" y="0" width="36" height="36"></rect>
                <path d="M18.3774089,20.0365107 C17.4949993,21.9975273 17.0096509,24.1047753 16.9477935,26.2435037 C16.9033704,27.2518953 16.9922166,28.266161 16.9276012,29.2725946 C16.8407743,30.596231 16.1724089,31.4753918 15.2274089,31.671196 C14.046544,31.8819383 12.8824215,31.2308405 12.4792358,30.1341331 C11.9354532,28.6704218 11.5431379,27.1578968 11.3080819,25.6188883 C10.9951012,23.692175 11.0576973,21.7028044 10.6417358,19.7995876 C10.2052306,17.9012314 9.56991467,16.0510715 8.7456781,14.2779093 C8.06923579,12.7937135 7.70779348,11.3408464 8.29538964,9.84098622 C8.87209818,8.38741131 9.57319676,6.98316738 10.3913512,5.64294426 C11.0132743,4.61497224 12.1076973,4.11958762 13.3555819,4.02168552 C14.6034666,3.92378342 14.8376973,4.1235037 14.8659666,5.32574147 C14.8659666,5.52154566 14.9002935,5.71734986 14.9366396,6.06979741 L21.7313512,6.06979741 C21.8088933,5.98310653 21.8765907,5.88857641 21.9332743,5.78783937 C22.0968319,5.22588133 22.2018319,4.20574147 22.4199089,4.18224496 C23.2801012,4.09217503 24.2917358,4.09217503 25.0449089,4.46028692 C27.9748127,5.90923797 29.6891396,11.3428044 28.0979858,14.1643429 C26.5976973,16.8155317 26.1029858,19.6703569 25.8142358,22.6054617 C25.6345243,24.4205666 25.5214473,26.2513359 25.1721204,28.0370701 C24.9701973,29.0258813 24.451255,29.9951121 23.9101012,30.8664408 C23.4133704,31.671196 22.4966396,31.8454617 21.5819281,31.6496576 C20.7925031,31.4959109 20.1992297,30.8602252 20.120005,30.083224 C19.9726012,29.0924548 20.0311589,28.0723149 19.8898127,27.0795876 C19.6010627,25.0275596 19.2456781,22.9814058 18.8923127,20.93721 C18.8458704,20.7002869 18.6439473,20.4927345 18.3774089,20.0365107 Z M15.0355819,30.1576296 C15.1385627,29.4977694 15.342505,28.8790282 15.3101973,28.2700771 C15.1535167,25.8935041 15.4226906,23.5085766 16.1057743,21.2211261 C16.3020981,20.5317594 16.6043312,19.874982 17.0023127,19.2728743 C17.3249376,18.8007136 17.8730449,18.5200673 18.4570887,18.5279882 C19.0411324,18.5359091 19.5809313,18.8313098 19.8898127,19.3120352 C20.2769334,19.9207467 20.5720515,20.5801363 20.7661589,21.2700771 C21.485005,23.6021051 21.6727935,25.9967904 21.5738512,28.4247624 C21.5496204,28.9925946 21.7515435,29.570217 21.8605819,30.2065806 C22.9711589,29.8482589 23.2356781,29.0963708 23.3669281,28.3875596 C23.6617358,26.7878394 23.8838512,25.1704967 24.0332743,23.551196 C24.3442358,20.1637834 24.6774089,16.7802869 26.4563512,13.7609862 C27.2135627,12.4706366 27.4033704,11.1920352 26.8177935,9.84490231 C26.4155242,8.84624503 25.9313788,7.88045039 25.370005,6.95679042 C25.0368319,6.43595126 24.4108704,6.09133587 23.8172166,5.58616105 C23.0842358,8.76993727 22.0402935,9.84881839 19.5586589,10.0739932 C18.0785627,10.2071401 16.6045243,10.1934338 15.2314473,9.48658063 C13.7008704,8.69161559 13.3414473,7.24853867 13.085005,5.55679042 C12.5236589,5.99734986 11.982505,6.22056664 11.7886589,6.60825895 C11.0033437,8.10208841 10.3220134,9.64521053 9.74923579,11.2272799 C9.5594281,11.7853219 9.80173579,12.6233638 10.1268319,13.1853219 C11.8815435,16.1870002 12.4671204,19.4510562 12.7518319,22.8306366 C12.9073127,24.7416855 13.2223127,26.6429443 13.5595243,28.5363708 C13.6584666,29.1844827 13.9310627,29.89721 15.0355819,30.1576296 Z" id="Combined-Shape" fill="#5AB969" fill-rule="nonzero"></path>
            </g>
        </g>
    </g>
</svg>