<?xml version="1.0" encoding="UTF-8"?>
<svg width="36px" height="36px" viewBox="0 0 36 36" version="1.1" xmlns="http://www.w3.org/2000/svg" xmlns:xlink="http://www.w3.org/1999/xlink">
    <!-- Generator: Sketch 50.2 (55047) - http://www.bohemiancoding.com/sketch -->
    <title>icon_repair_slice</title>
    <desc>Created with Sketch.</desc>
    <defs></defs>
    <g id="Page-1" stroke="none" stroke-width="1" fill="none" fill-rule="evenodd">
        <g id="Artboard" transform="translate(0.000000, -54.000000)">
            <g id="icon_repair" transform="translate(0.000000, 54.000000)">
                <rect id="Rectangle-4-Copy-7" x="0" y="0" width="36" height="36"></rect>
                <path d="M26.1322238,21.2063492 L26.1322238,23.0396825 L27.7099861,23.140873 L27.7099861,30.8115079 L22.7434826,30.8115079 L22.7434826,23.1527778 L24.3293567,23.047619 C24.3496364,22.6507937 24.3455805,22.2916667 24.3901959,21.9424603 C24.4834826,21.2380952 24.2239022,20.9246032 23.4735525,20.734127 C20.2531329,19.9166667 18.294112,17.8730159 17.714112,14.656746 C17.0834127,11.1587302 19.3263497,7.58531746 22.784042,6.4702381 C26.4992868,5.2797619 30.3443218,6.84722222 32.0924336,10.2837302 C33.7290071,13.4980159 32.7292169,17.5456349 29.6872588,19.5357143 C28.6489371,20.218254 27.4139022,20.6170635 26.1322238,21.2063492 Z M25.1953008,19.3551587 C28.4562798,19.3650794 31.1798462,16.75 31.2163497,13.6190476 C31.2528532,10.4880952 28.4806155,7.68452381 25.3534826,7.68452381 C22.0458602,7.68650794 19.304042,10.3452381 19.304042,13.5198413 C19.2860624,16.7220049 21.9224029,19.3333116 25.1953008,19.3551587 Z M12.9341819,6.25198413 C11.8634127,7.58333333 10.8534826,8.96626984 9.70362245,10.2301587 C8.55376231,11.4940476 7.28425182,12.6111111 5.86061546,14 C7.31061546,15.3412698 8.64502105,16.6944444 10.1193567,17.8968254 C11.5936924,19.0992063 12.5001959,20.4424603 12.1189371,22.3928571 C12.109506,22.6109861 12.1265244,22.8294401 12.1696364,23.0436508 L13.727119,23.1587302 L13.727119,30.8253968 L8.76872735,30.8253968 L8.76872735,23.1488095 L10.3302658,23.047619 C10.4965595,21.6984127 10.6121539,20.5138889 9.35075532,19.4583333 C7.63711895,18.0238095 6.14250357,16.3412698 4.52215392,14.7956349 C3.84886721,14.1547619 3.80830777,13.6329365 4.50795812,12.9702381 C6.13033574,11.4305556 7.65334273,9.7797619 9.32844763,8.29761905 C10.3302658,7.41269841 11.547049,6.75793651 12.6664896,6 L12.9341819,6.25198413 Z" id="Combined-Shape" fill="#BD50FF" fill-rule="nonzero"></path>
            </g>
        </g>
    </g>
</svg>