<?xml version="1.0" encoding="UTF-8"?>
<svg width="36px" height="36px" viewBox="0 0 36 36" version="1.1" xmlns="http://www.w3.org/2000/svg" xmlns:xlink="http://www.w3.org/1999/xlink">
    <!-- Generator: Sketch 50.2 (55047) - http://www.bohemiancoding.com/sketch -->
    <title>icon_whitening_slice</title>
    <desc>Created with Sketch.</desc>
    <defs></defs>
    <g id="Page-1" stroke="none" stroke-width="1" fill="none" fill-rule="evenodd">
        <g id="Artboard" transform="translate(-185.000000, -54.000000)">
            <g id="icon_whitening" transform="translate(185.000000, 54.000000)">
                <rect id="Rectangle-4-Copy-11" x="0" y="0" width="36" height="36"></rect>
                <path d="M5.12040176,18.8156737 L5.11085271,18.82 C5.48399277,18.023721 5.91304318,17.1184628 6.3721663,16.1416978 L5.2096124,15.726 C5.21637719,15.7230582 5.22310447,15.7201305 5.22979433,15.7172165 L5.2096124,15.71 C5.91105614,15.4061415 6.20922339,15.2562495 6.21235834,14.9368643 C6.21020581,14.714413 6.06914106,14.4118338 5.82434109,13.926 C5.59457364,13.458 5.33054264,13.014 5.06046512,12.526 L5.07212237,12.5313836 C5.06823793,12.5242664 5.06435215,12.5171386 5.06046512,12.51 L7.82775194,13.788 C8.02930233,13.276 8.14418605,12.944 8.30542636,12.516 L8.67829457,13.78 L11.3810853,12.568 L11.3702502,12.5928587 L11.3810853,12.588 L10.2197073,15.2525306 L11.475814,15.67 L11.4450636,15.6797801 L11.475814,15.69 L10.2257871,16.0875677 C10.6260594,17.0070573 11.0045039,17.8754025 11.3710078,18.724 L11.3603544,18.7194502 C11.3639068,18.7276361 11.3674579,18.7358193 11.3710078,18.744 L8.67829457,17.574 C8.53116279,18.08 8.44248062,18.39 8.31953488,18.828 L7.82573643,17.606 L5.11085271,18.836 C5.11403182,18.8292328 5.11721484,18.8224573 5.12040176,18.8156737 Z M8.79679258,12.9991324 C8.87754689,12.3829646 8.92650917,11.8349269 9.03705426,11.298 C9.12921419,10.9778239 9.25345151,10.6676098 9.40790698,10.372 C10.9235659,6.924 12.7496124,5.972 16.427907,6.896 C17.9239684,7.26724298 19.4877904,7.27821456 20.9889922,6.928 C21.7347287,6.768 22.5691473,7.006 23.3652713,7.064 C23.3657219,7.06578845 23.3661727,7.0675769 23.3666237,7.06936535 C23.3695323,7.06957922 23.3724407,7.06979078 23.3753488,7.07 C23.4176744,7.238 23.4620155,7.406 23.5043411,7.576 C23.1153488,7.83 22.7444961,8.182 22.3091473,8.322 C19.9812403,9.07 17.6513178,9.008 15.2851163,8.368 C13.4046512,7.872 12.4170543,8.366 11.4556589,10.072 C11.1223746,10.6452843 10.8430534,11.2478334 10.6212403,11.872 C10.480485,12.2859203 10.2685027,12.5756327 9.9609992,12.767364 C9.66730689,12.9519967 9.28350923,13.0455604 8.78713178,13.072 C8.79040512,13.0476011 8.79362383,13.0233105 8.7967941,12.9991253 Z M26.9707433,4.17522685 L28.2689922,3.602 L28.2684582,3.60312574 L28.2710078,3.602 L27.6865116,4.834 L30.8165891,5.968 L27.6804651,7.07 L28.3576744,8.454 L28.354876,8.45239987 L28.3556589,8.454 L27.035164,7.69895812 C26.6039711,8.91460407 26.1949546,10.0642359 25.8745736,10.962 C25.8742484,10.9610295 25.873923,10.9600586 25.8735975,10.9590874 C25.873251,10.9600586 25.8729045,10.9610294 25.8725581,10.962 C25.8295729,10.8310112 25.7842821,10.693845 25.7369088,10.5510346 C25.5941686,10.1247613 25.4347653,9.64837575 25.2629713,9.13551803 C25.1112171,8.68469429 24.9497062,8.20594372 24.7824745,7.70890331 L23.4237209,8.426 C23.4241836,8.42504777 23.4246461,8.42409597 23.4251083,8.4231446 L23.4196899,8.426 C23.6373643,7.978 23.8106977,7.626 24.0827907,7.068 L20.8579845,5.958 L24.1110078,4.89 L23.3330233,3.46 L23.3387068,3.46303743 L23.3370543,3.46 L24.7445195,4.21218964 C25.1715635,3.01087144 25.5703904,1.88755417 25.8846512,1 L26.9707433,4.17522685 Z M15.0947399,33.1581748 C15.0943738,33.1587832 15.0940083,33.1593916 15.0936434,33.16 C14.8275969,32.994 14.4224806,32.886 14.3217054,32.65 C13.9831008,31.86 13.6303876,31.042 13.5155039,30.206 C13.1345736,27.404 12.7818605,24.594 12.5299225,21.778 C12.3848062,20.156 11.3810853,19.338 10.0931783,18.646 C10.4205246,20.2511353 10.7914937,21.7920861 11.0501437,23.3449339 C10.783634,21.7946517 10.4173118,20.2524716 10.0931783,18.646 C11.3810853,19.332 12.3848062,20.156 12.5339535,21.778 C12.7858915,24.594 13.1305426,27.406 13.5195349,30.206 C13.6404651,31.05 13.9931783,31.85 14.3257364,32.65 C14.4261418,32.8851339 14.8286587,32.9932056 15.0947399,33.1581748 Z M15.5633218,31.4739726 C15.5794893,30.9968787 15.5808163,30.5193271 15.5672868,30.042 C15.505113,27.703244 15.9036991,25.3765354 16.7389449,23.1920331 C16.7976968,23.0379684 16.8586198,22.8846089 16.9217054,22.732 C17.2542636,21.944 17.7944186,21.42 18.7517829,21.426 C19.8300775,21.426 20.319845,22.14 20.6262016,22.968 C21.5326307,25.3395491 21.9506886,27.8673649 21.8556589,30.402 C21.8485428,30.5658236 21.8472054,30.7298965 21.8501719,30.8941747 C21.8542147,31.0988786 21.864509,31.3037081 21.8784162,31.5085787 C21.9173904,32.071879 21.9852264,32.6369395 22.0229457,33.202 L22.4562791,33.316 C22.7438998,32.9804525 23.1851756,32.683953 23.3103408,32.3063777 C23.3141952,32.2943386 23.31773,32.2822141 23.3209302,32.27 C23.3382916,32.205127 23.3554756,32.14021 23.372482,32.0752497 C23.7140139,30.7597804 23.9827667,29.4267055 24.1775194,28.082 C24.4979845,25.816 24.5806202,23.508 25.0300775,21.27 C25.3664626,19.7159738 25.9293308,18.2189022 26.7009302,16.826 C27.5978295,15.166 27.5796899,13.606 26.8803101,11.952 C26.3542636,10.702 26.3905426,10.198 27.0556589,8.93 C27.057689,8.93192054 27.0597177,8.93384323 27.0617451,8.93576805 C27.0624031,8.93451278 27.0630617,8.93325677 27.0637209,8.932 C29.0147287,10.77 29.6858915,14.59 28.2871318,17.04 C26.8883721,19.49 26.3300775,22.084 26.1285271,24.84 C25.9672868,27.086 25.6972093,29.334 25.3223256,31.556 C25.1792248,32.402 24.6874419,33.23 24.2077519,33.972 C24.199579,33.984672 24.1913166,33.9972004 24.1829658,34.009586 C24.1791448,34.0152937 24.1753051,34.0209713 24.1714469,34.0266189 C23.6513983,34.7823145 22.7976798,34.9953757 21.8939535,34.8 C21.0658425,34.6444759 20.4431551,33.9611925 20.3702326,33.128 C20.2271318,32.012 20.3097674,30.868 20.1545736,29.754 C19.8784496,27.754 19.5015504,25.768 19.1468217,23.78 C19.1186047,23.57 18.9311628,23.384 18.7155039,23.004 C18.714341,23.0063178 18.7131775,23.0086319 18.7120135,23.0109424 C18.7118333,23.0106284 18.7116531,23.0103143 18.7114729,23.01 C18.4756589,23.48 18.2176744,23.798 18.1592248,24.146 C17.8347287,26.072 17.5324031,28.004 17.2824806,29.946 C17.1454264,30.994 17.215969,32.074 17.0325581,33.112 C16.9799959,33.4088986 16.8855267,33.6861228 16.7448566,33.9281991 C16.464389,34.4056362 16.0023793,34.7445287 15.3254264,34.828 C14.3936314,34.9789188 13.470868,34.5125854 13.0458915,33.676 C12.531938,32.722 12.0623256,31.678 11.8930233,30.622 C11.5463566,28.456 11.4778295,26.248 11.1674419,24.074 C11.1311527,23.8305941 11.0918717,23.5876647 11.0501437,23.3449339 Z" id="Combined-Shape" fill="#4C9BFF" fill-rule="nonzero"></path>
            </g>
        </g>
    </g>
</svg>