<?xml version="1.0" encoding="UTF-8"?>
<svg width="36px" height="36px" viewBox="0 0 36 36" version="1.1" xmlns="http://www.w3.org/2000/svg" xmlns:xlink="http://www.w3.org/1999/xlink">
    <!-- Generator: Sketch 50.2 (55047) - http://www.bohemiancoding.com/sketch -->
    <title>icon_plant_slice</title>
    <desc>Created with Sketch.</desc>
    <defs></defs>
    <g id="Page-1" stroke="none" stroke-width="1" fill="none" fill-rule="evenodd">
        <g id="Artboard">
            <g id="icon_plant">
                <rect id="Rectangle-4-Copy-8" x="0" y="0" width="36" height="36"></rect>
                <path d="M10.6708934,18.6520611 C9.86320106,16.7483698 9.05550875,15.0444101 8.44973952,13.265551 C8.12666259,12.3251484 7.84397029,11.1642088 8.09839336,10.2633363 C8.59224645,8.40647449 9.31567274,6.62271209 10.2508934,4.95588661 C11.288778,3.1624638 13.1323357,2.66729601 15.0344511,3.20615507 C17.3161818,3.85528259 19.5070472,3.7824638 21.7847395,3.20615507 C24.0321434,2.63608796 25.7686818,3.43293359 26.9095472,5.5072289 C28.0140664,7.51494702 29.1488741,9.5767591 28.7046434,12.0463564 C28.5976241,12.6476316 28.3129126,13.2156182 28.0988741,13.7940074 C27.5839703,15.1754839 27.0347395,16.5444772 26.5541626,17.9405175 C26.3865664,18.4211215 26.2189703,18.6707859 25.6636818,18.6687054 C20.6135857,18.643739 15.5816626,18.6520611 10.6708934,18.6520611 Z M18.3924318,16.9397792 L18.3803164,16.9439403 C20.3389703,16.9439403 22.287528,16.9314571 24.2360857,16.954343 C24.7651241,16.9585041 25.043778,16.8253497 25.2457011,16.2386383 C25.6132987,15.1653867 26.0587882,14.1221706 26.5783934,13.1178329 C27.143778,12.0005846 27.2831049,10.8833363 26.9034895,9.711994 C26.6502538,8.88853218 26.3370565,8.08593923 25.9665664,7.3110544 C24.7005087,4.78320205 23.8726241,4.37125574 21.2032011,5.07447722 C19.3071434,5.57588661 17.4393549,5.64454433 15.5493549,5.05783292 C15.1594937,4.95523386 14.7644815,4.87466627 14.3660857,4.81649064 C13.1343549,4.58138997 12.1126241,4.98501413 11.5189703,6.08561816 C10.8628169,7.32650864 10.2952576,8.614996 9.82079721,9.94085306 C9.43714336,10.9873631 9.64108567,12.0276316 10.160028,13.036692 C10.6836743,14.0375954 11.1260488,15.0814246 11.4826241,16.1574974 C11.682528,16.783739 11.9632011,16.9397792 12.5467587,16.9397792 C14.4953164,16.9231349 16.4438741,16.9397792 18.3924318,16.9397792 Z M13.3018549,24.0862733 L14.3882011,23.9385552 C14.5517587,22.5508371 14.4386818,22.40728 13.1766626,22.3989579 L11.8621434,22.3989579 L11.8621434,20.6409042 C12.2724079,20.6723052 12.68455,20.666736 13.0938741,20.6242599 C13.4028164,20.5660048 13.6733934,20.3309042 13.9782972,20.2185552 C14.2444005,20.1015124 14.5276409,20.0311895 14.816278,20.0105015 C17.0697395,19.9980183 19.3232011,19.9876156 21.5766626,20.0250652 C22.1723357,20.0250652 22.7882011,19.7858035 23.347528,20.5181525 C23.6039703,20.8551995 24.5408934,20.6450652 25.2314703,20.6887565 L25.2314703,22.2616424 C24.4035857,22.3698303 23.5757011,22.40728 22.8083934,22.6361391 C22.6206049,22.690233 22.6064703,23.3872129 22.5014703,23.8844612 L23.7634895,24.0654679 L23.7634895,25.7423807 C22.770028,25.6966089 21.6332011,25.6029847 21.8835857,27.3048639 L23.0951241,27.4692263 L23.0951241,28.9256022 C23.0466626,28.971374 22.9901241,29.0608371 22.9477203,29.0545954 C21.5342587,28.8090921 20.9708934,29.5601659 20.6478164,30.8750652 C20.4034986,31.7388697 20.0146795,32.5520874 19.4988741,33.2780854 C18.8931049,34.1997632 18.1540664,34.1914411 17.5745472,33.2468773 C17.0596434,32.4146626 16.706278,31.4596961 16.3084895,30.5421793 C16.1166626,30.103186 15.9894511,29.6350652 15.8218549,29.141978 L14.028778,29.0608371 L14.028778,27.4671458 L15.1676241,27.3111055 C15.2524318,25.9899646 15.2382972,25.9754008 13.3139703,25.619629 L13.3018549,24.0862733 Z M20.9749318,22.4780183 L16.1186818,22.4780183 C16.2135857,23.9968102 16.2135857,23.9968102 17.5321434,23.9968102 C18.2085857,23.9968102 18.8809895,23.9968102 19.5513741,23.9968102 C20.8860857,23.9905686 20.8860857,23.9905686 20.9749318,22.4780183 Z M20.2964703,25.8401659 L16.7547395,25.8401659 C16.9465664,26.6598975 16.8657972,27.5045954 18.0591626,27.4296961 C20.197528,27.2986223 19.9330087,27.7292934 20.2964703,25.8401659 Z M18.4145472,31.4139243 L18.7133934,31.39728 C18.9577203,30.6690921 19.2040664,29.9409042 19.4605087,29.1711055 L17.5967587,29.1711055 L18.4145472,31.4139243 Z" id="Combined-Shape" fill="#4C9BFF" fill-rule="nonzero"></path>
            </g>
        </g>
    </g>
</svg>