<?xml version="1.0" encoding="UTF-8"?>
<svg width="36px" height="36px" viewBox="0 0 36 36" version="1.1" xmlns="http://www.w3.org/2000/svg" xmlns:xlink="http://www.w3.org/1999/xlink">
    <!-- Generator: Sketch 50.2 (55047) - http://www.bohemiancoding.com/sketch -->
    <title>icon_tooth_extraction_slice</title>
    <desc>Created with Sketch.</desc>
    <defs></defs>
    <g id="Page-1" stroke="none" stroke-width="1" fill="none" fill-rule="evenodd">
        <g id="Artboard" transform="translate(-185.000000, -162.000000)">
            <g id="icon_tooth_extraction" transform="translate(185.000000, 162.000000)">
                <rect id="Rectangle-4-Copy-9" x="0" y="0" width="36" height="36"></rect>
                <path d="M14.7651282,11.9665089 C17.1651282,9.94461538 18.6584615,9.94662722 21.1241026,11.9363314 C23.9938462,9.72331361 23.4071795,5.85254438 19.7887179,3.68781065 C20.1230769,2.85289941 20.4635897,1.99786982 20.8389744,1.05431953 C23.345641,2.09242604 24.9251282,3.81857988 25.6205128,6.28508876 C26.1016665,8.01876129 25.9433,9.8633767 25.1733333,11.4937278 C24.4225641,13.1937278 23.0789744,14.3424852 21.4666667,15.3343195 C21.6964103,15.6159763 21.8174359,15.8775148 22.0225641,16.0183432 C23.4789744,17.0202367 23.6964103,18.412426 23.6635897,20.0560947 C23.5712821,24.6471006 23.6307692,29.2421302 23.6307692,33.8351479 L23.6307692,34.8973964 L20.6810256,34.8973964 L20.6810256,29.9221302 C20.6769231,26.403432 20.6810256,22.8807101 20.6605128,19.3620118 C20.6564103,18.3621302 19.7230769,17.6861538 18.6974359,17.8350296 C18.262252,17.9019042 17.8196632,17.9086761 17.3825641,17.8551479 C16.0041026,17.6660355 15.2266667,18.3017751 15.2266667,19.687929 C15.2266667,24.3473373 15.2266667,29.0080868 15.2266667,33.6701775 L15.2266667,34.9094675 L12.3220513,34.9094675 C12.3015385,34.647929 12.2646154,34.392426 12.2646154,34.1349112 C12.2625641,29.171716 12.2994872,24.2105325 12.24,19.2473373 C12.225641,18.0321893 12.5435897,17.0866272 13.5261538,16.3663905 C13.8564103,16.1209467 14.2092308,15.9076923 14.734359,15.5616568 C11.0482051,13.2963314 9.38871795,10.3972781 10.2584615,6.47218935 C10.8266667,3.91112426 12.4841026,2.15680473 15.0441026,1.05431953 L16.0841026,3.59526627 C12.414359,6.46011834 11.9651282,9.33301775 14.7651282,11.9665089 Z M19.7784615,14.1775148 C19.7672817,13.1970694 18.9566401,12.4064937 17.9569231,12.4010651 C16.9651423,12.4291446 16.1616765,13.1996477 16.1107692,14.1714793 C16.0882051,15.1271006 17.0276923,16.0384615 18.0061538,16.008284 C19.0048082,15.9691443 19.7903636,15.1576765 19.7784615,14.1775148 Z" id="Combined-Shape" fill="#7F82FA" fill-rule="nonzero"></path>
            </g>
        </g>
    </g>
</svg>