<?xml version="1.0" encoding="UTF-8"?>
<svg width="30px" height="30px" viewBox="0 0 30 30" version="1.1" xmlns="http://www.w3.org/2000/svg" xmlns:xlink="http://www.w3.org/1999/xlink">
    <!-- Generator: Sketch 50.2 (55047) - http://www.bohemiancoding.com/sketch -->
    <title>jj_slice</title>
    <desc>Created with Sketch.</desc>
    <defs></defs>
    <g id="Page-1" stroke="none" stroke-width="1" fill="none" fill-rule="evenodd">
        <g id="Artboard" transform="translate(-187.000000, 0.000000)" fill-rule="nonzero">
            <g id="jj" transform="translate(187.000000, 0.000000)">
                <rect id="Rectangle-path-Copy" fill="#000000" opacity="0" x="0" y="0" width="30" height="30"></rect>
                <path d="M28.3160395,25.19948 C28.3497937,25.093274 28.3722965,24.9794819 28.3722965,24.8581035 L28.3722965,9.72753889 C28.3722965,9.13581964 27.8997375,8.65789255 27.3146643,8.65789255 L21.4189274,8.65789255 L21.4189274,24.5887954 C21.4189274,24.8012075 21.3814227,25.0060334 21.3139142,25.195687 L20.6200775,25.195687 C20.6538317,25.0894809 20.6763345,24.9756888 20.6763345,24.8543105 L20.6763345,5.06964634 C20.6763345,4.47792709 20.2037755,4 19.6187023,4 L10.3700463,4 C9.78497312,4 9.31241405,4.47792709 9.31241405,5.06964634 L9.31241405,24.8581035 C9.31241405,24.9756888 9.3311664,25.0894809 9.36867108,25.19948 L8.67858482,25.19948 C8.61107638,25.0098264 8.5735717,24.8050005 8.5735717,24.5925885 L8.5735717,8.66168563 L2.82035254,8.66168563 C2.23527941,8.66168563 1.76272034,9.13961271 1.76272034,9.73133196 L1.76272034,24.8618966 C1.76272034,24.9794819 1.78147268,25.093274 1.81897737,25.2032731 L0,25.2032731 L0,27.4146341 L30,27.4146341 L30,25.2032731 L28.3160395,25.2032731 L28.3160395,25.19948 Z M5.7832229,11.3358015 L7.30216277,11.3358015 L7.30216277,12.8719957 L5.7832229,12.8719957 L5.7832229,11.3358015 Z M5.7832229,13.941642 L7.30216277,13.941642 L7.30216277,15.4778362 L5.7832229,15.4778362 L5.7832229,13.941642 Z M5.7832229,16.6347232 L7.30216277,16.6347232 L7.30216277,18.1709174 L5.7832229,18.1709174 L5.7832229,16.6347232 Z M3.41667708,11.3358015 L4.93561695,11.3358015 L4.93561695,12.8719957 L3.41667708,12.8719957 L3.41667708,11.3358015 Z M3.41667708,13.941642 L4.93561695,13.941642 L4.93561695,15.4778362 L3.41667708,15.4778362 L3.41667708,13.941642 Z M3.41667708,16.6347232 L4.93561695,16.6347232 L4.93561695,18.1709174 L3.41667708,18.1709174 L3.41667708,16.6347232 Z M3.41667708,19.2140122 L4.93561695,19.2140122 L4.93561695,20.7502064 L3.41667708,20.7502064 L3.41667708,19.2140122 Z M4.97312164,23.253634 L3.45418177,23.253634 L3.45418177,21.7174398 L4.97312164,21.7174398 L4.97312164,23.253634 Z M5.7832229,19.2140122 L7.30216277,19.2140122 L7.30216277,20.7502064 L5.7832229,20.7502064 L5.7832229,19.2140122 Z M7.33966746,23.253634 L5.82072759,23.253634 L5.82072759,21.7174398 L7.33966746,21.7174398 L7.33966746,23.253634 Z M17.3496687,25.1274117 L12.8941118,25.1274117 L12.8941118,16.8509283 L17.3496687,16.8509283 L17.3496687,25.1274117 Z M14.9943743,12.0299337 C12.9316165,12.0299337 11.2626578,10.3420166 11.2626578,8.25582691 C11.2626578,6.16963725 12.9353669,4.48172016 14.9943743,4.48172016 C17.0571321,4.48172016 18.7260908,6.16963725 18.7260908,8.25582691 C18.7260908,10.3420166 17.0571321,12.0299337 14.9943743,12.0299337 Z M25.4769346,11.3358015 L26.9958745,11.3358015 L26.9958745,12.8719957 L25.4769346,12.8719957 L25.4769346,11.3358015 Z M25.4769346,13.941642 L26.9958745,13.941642 L26.9958745,15.4778362 L25.4769346,15.4778362 L25.4769346,13.941642 Z M25.4769346,16.6347232 L26.9958745,16.6347232 L26.9958745,18.1709174 L25.4769346,18.1709174 L25.4769346,16.6347232 Z M23.1103888,11.3358015 L24.6293287,11.3358015 L24.6293287,12.8719957 L23.1103888,12.8719957 L23.1103888,11.3358015 Z M23.1103888,13.941642 L24.6293287,13.941642 L24.6293287,15.4778362 L23.1103888,15.4778362 L23.1103888,13.941642 Z M23.1103888,16.6347232 L24.6293287,16.6347232 L24.6293287,18.1709174 L23.1103888,18.1709174 L23.1103888,16.6347232 Z M23.1103888,19.2140122 L24.6293287,19.2140122 L24.6293287,20.7502064 L23.1103888,20.7502064 L23.1103888,19.2140122 Z M24.6668334,23.253634 L23.1478935,23.253634 L23.1478935,21.7174398 L24.6668334,21.7174398 L24.6668334,23.253634 Z M25.4769346,19.2140122 L26.9958745,19.2140122 L26.9958745,20.7502064 L25.4769346,20.7502064 L25.4769346,19.2140122 Z M27.0296287,23.253634 L25.5106888,23.253634 L25.5106888,21.7174398 L27.0296287,21.7174398 L27.0296287,23.253634 Z M17.3496687,7.3189381 L17.3496687,9.19271572 L15.9207401,9.19271572 L15.9207401,10.6378762 L14.0680085,10.6378762 L14.0680085,9.19271572 L12.6390799,9.19271572 L12.6390799,7.3189381 L14.0680085,7.3189381 L14.0680085,5.87377762 L15.9207401,5.87377762 L15.9207401,7.3189381 L17.3496687,7.3189381 Z" id="Shape" fill="#1DC534"></path>
            </g>
        </g>
    </g>
</svg>