<?xml version="1.0" encoding="UTF-8"?>
<svg width="30px" height="30px" viewBox="0 0 30 30" version="1.1" xmlns="http://www.w3.org/2000/svg" xmlns:xlink="http://www.w3.org/1999/xlink">
    <!-- Generator: Sketch 50.2 (55047) - http://www.bohemiancoding.com/sketch -->
    <title>kf_1_slice</title>
    <desc>Created with Sketch.</desc>
    <defs></defs>
    <g id="Page-1" stroke="none" stroke-width="1" fill="none" fill-rule="evenodd">
        <g id="Artboard" transform="translate(-190.000000, 0.000000)">
            <g id="kf_1" transform="translate(190.000000, 0.000000)">
                <rect id="Rectangle-3-Copy-7" stroke="#979797" fill="#D8D8D8" opacity="0" x="0.5" y="0.5" width="29" height="29"></rect>
                <path d="M15.2366234,2 C7.92531211,2 2,7.18589152 2,13.5820454 C2,17.239359 3.93973564,20.4921464 6.96373376,22.6175661 L6.96373376,28.4765625 L12.7630459,24.9585121 C13.5654665,25.0911436 14.3910976,25.1674067 15.2366234,25.1674067 C22.5479346,25.1674067 28.4732467,19.9815151 28.4732467,13.5853612 C28.4765625,7.18589152 22.5479346,2 15.2366234,2 Z M19.374726,17.7201481 L11.1018365,17.7201481 C10.6442578,17.7201481 10.2728896,17.3487799 10.2728896,16.8912013 C10.2728896,16.4336226 10.6442578,16.0622544 11.1018365,16.0622544 L19.374726,16.0622544 C19.8323047,16.0622544 20.2036729,16.4336226 20.2036729,16.8912013 C20.2036729,17.3487799 19.8323047,17.7201481 19.374726,17.7201481 Z M21.029304,12.7530986 L9.44725853,12.7530986 C8.98967987,12.7530986 8.61831168,12.3817304 8.61831168,11.9241517 C8.61831168,11.4665731 8.98967987,11.0952049 9.44725853,11.0952049 L21.029304,11.0952049 C21.4868826,11.0952049 21.8582508,11.4665731 21.8582508,11.9241517 C21.8582508,12.3850462 21.4868826,12.7530986 21.029304,12.7530986 Z" id="Shape-Copy-6" fill="#999999" fill-rule="nonzero"></path>
            </g>
        </g>
    </g>
</svg>