<?xml version="1.0" encoding="UTF-8"?>
<svg width="30px" height="30px" viewBox="0 0 30 30" version="1.1" xmlns="http://www.w3.org/2000/svg" xmlns:xlink="http://www.w3.org/1999/xlink">
    <!-- Generator: Sketch 50.2 (55047) - http://www.bohemiancoding.com/sketch -->
    <title>ry_slice</title>
    <desc>Created with Sketch.</desc>
    <defs></defs>
    <g id="Page-1" stroke="none" stroke-width="1" fill="none" fill-rule="evenodd">
        <g id="Artboard" fill-rule="nonzero">
            <g id="ry">
                <rect id="Rectangle-path" fill="#000000" opacity="0" x="0" y="0" width="30" height="30"></rect>
                <path d="M15.5006539,22.613501 L13.5555615,23.8327328 C13.0504823,24.1501659 12.3877897,23.9950565 12.076145,23.4864421 C12.0725629,23.4792277 12.0653987,23.4684061 12.0618165,23.4611917 L10.9047911,21.4700203 L8.61939707,21.6395584 C8.0283469,21.6828448 7.5125213,21.2355526 7.46953584,20.6403655 L7.46953584,20.611508 L7.36207217,18.3065106 L5.2557843,17.3938903 C4.71130172,17.1558155 4.46055316,16.517342 4.69697323,15.9690485 C4.70055535,15.9582269 4.70413748,15.9510125 4.7077196,15.9401909 L5.6748926,13.848018 L4.23846159,12.0516351 C3.86592087,11.586307 3.93756332,10.9045472 4.39965709,10.5293989 C4.40682133,10.5221845 4.41398557,10.5185774 4.42114982,10.511363 L6.24445003,9.11537864 L5.80026688,6.8536676 C5.68563897,6.26569487 6.06534392,5.69936531 6.64564772,5.58393508 C6.65639409,5.58032789 6.66355834,5.58032789 6.6743047,5.58032789 L8.93462383,5.19435806 L9.5901522,2.98314775 C9.75851194,2.4096038 10.3567264,2.08495628 10.9262838,2.25449443 C10.9370302,2.25810162 10.9441944,2.26170882 10.9549408,2.26170882 L13.1328711,2.97954055 L14.7304976,1.32744541 C15.1460238,0.898189244 15.8230449,0.890974854 16.2493174,1.30580224 L16.2708102,1.32744541 L17.8684367,2.97954055 L20.046367,2.26170882 C20.6087602,2.07774189 21.217721,2.38796063 21.4004092,2.95429019 C21.4039913,2.96511177 21.4075734,2.97232616 21.4075734,2.98314775 L22.0595197,5.19435806 L24.3198388,5.58032789 C24.9037247,5.68132934 25.2977582,6.23683731 25.2010409,6.82841723 C25.2010409,6.83923882 25.1974588,6.84645321 25.1974588,6.85727479 L24.7532756,9.11898583 L26.5765758,10.5149702 C27.0494159,10.8756896 27.138969,11.5574494 26.7807568,12.0299919 C26.7735925,12.0372063 26.7700104,12.0444207 26.7628462,12.0516351 L25.3264152,13.848018 L26.2935882,15.9401909 C26.5443367,16.4812701 26.3114988,17.1269579 25.7741804,17.3794616 C25.7670162,17.3830688 25.7562698,17.3866759 25.7455235,17.3902831 L23.6428177,18.3101178 L23.535354,20.6151151 C23.5066971,21.2139095 23.0051999,21.6720232 22.4105677,21.6467728 L22.3819107,21.6467728 L20.0965167,21.4772347 L18.9394912,23.4647989 C18.6385929,23.9806277 17.9794825,24.1537731 17.467239,23.8507687 C17.4600747,23.8471615 17.4493284,23.8399472 17.4421641,23.83634 L15.5006539,22.613501 Z M15.5006539,21.0155138 C20.2899513,21.0155138 24.1693897,17.108922 24.1693897,12.2861027 C24.1693897,7.46328349 20.2899513,3.55669169 15.5006539,3.55669169 C10.7113565,3.55669169 6.83191808,7.46328349 6.83191808,12.2861027 C6.83191808,17.108922 10.7113565,21.0155138 15.5006539,21.0155138 Z" id="Shape" fill="#FE4563"></path>
                <path d="M15.5,20 C11.3661972,20 8,16.6338028 8,12.5 C8,8.36619718 11.3661972,5 15.5,5 C19.6338028,5 23,8.36619718 23,12.5 C23,16.6338028 19.6338028,20 15.5,20 Z M15.5,6.05633803 C11.9471831,6.05633803 9.05633803,8.9471831 9.05633803,12.5 C9.05633803,16.0528169 11.9471831,18.943662 15.5,18.943662 C19.0528169,18.943662 21.943662,16.0528169 21.943662,12.5 C21.943662,8.9471831 19.0528169,6.05633803 15.5,6.05633803 Z" id="Shape" fill="#FE4563"></path>
                <path d="M15.5035309,15.191679 L12.6823764,16.6736008 L13.2225975,13.5354136 L10.9381333,11.312531 L14.0947191,10.8548787 L15.5035309,8 L16.9158735,10.8548787 L20.0724593,11.312531 L17.7879951,13.5354136 L18.3282161,16.6736008 L15.5035309,15.191679 Z M8.51949647,19.608387 L12.4352165,21.9329701 L7.91571999,29.9854714 L7.11421554,26.7637444 L4,27.6608882 L8.51949647,19.608387 Z M22.4805035,19.6229156 L18.5647835,21.9474988 L23.08428,30 L23.8857845,26.7782731 L27,27.6754169 L22.4805035,19.6229156 Z" id="Shape" fill="#FE4563"></path>
            </g>
        </g>
    </g>
</svg>