<?xml version="1.0" encoding="UTF-8"?>
<svg width="30px" height="30px" viewBox="0 0 30 30" version="1.1" xmlns="http://www.w3.org/2000/svg" xmlns:xlink="http://www.w3.org/1999/xlink">
    <!-- Generator: Sketch 50.2 (55047) - http://www.bohemiancoding.com/sketch -->
    <title>sy_slice</title>
    <desc>Created with Sketch.</desc>
    <defs></defs>
    <g id="Page-1" stroke="none" stroke-width="1" fill="none" fill-rule="evenodd">
        <g id="Artboard">
            <g id="sy">
                <rect id="Rectangle-3-Copy-6" stroke="#979797" fill="#D8D8D8" opacity="0" x="0.5" y="0.5" width="29" height="29"></rect>
                <path d="M23.0604273,27.611114 C23.0174732,27.6112488 22.9745225,27.6103069 22.9316157,27.6082892 L6.44174859,27.6082892 C5.33724529,27.6082892 4.70137907,27.1429007 4.36268355,26.7526522 C3.61989802,25.897439 3.67964289,24.7378518 3.71297573,24.4161052 L3.71297573,14.498174 L5.47848612,14.498174 L5.47848612,24.5370073 L5.47029415,24.5889839 C5.44924927,24.765535 5.4472719,25.3138319 5.69896306,25.5988559 C5.75221085,25.6591657 5.91421409,25.8426376 6.44188983,25.8426376 L23.0020948,25.8426376 L23.022716,25.8448974 C23.0820372,25.847016 23.6383848,25.8569029 23.9880971,25.5261169 C24.2212857,25.3056399 24.3396455,24.9409561 24.3396455,24.4422347 L24.3396455,14.4904057 L26.1051559,14.4904057 L26.1051559,24.4422347 C26.1051559,25.7077526 25.6017736,26.4386739 25.1794635,26.8292048 C24.4198703,27.5315954 23.4577378,27.6112553 23.0604273,27.6112553 L23.0604273,27.611114 Z M4.59587217,15.3266927 L1.88249455,15.3266927 C1.51590329,15.3265685 1.1875395,15.0998855 1.05747056,14.7571448 C0.927401612,14.414404 1.02269976,14.0269428 1.29691006,13.7836366 L14.323552,2.22250959 C14.655167,1.92821244 15.1536287,1.92555301 15.4883651,2.216295 L28.6960777,13.6863217 C28.9706749,13.9248323 29.0708739,14.3073498 28.948471,14.6498531 C28.8260681,14.9923563 28.5061231,15.2247239 28.1425549,15.2351686 L25.2476828,15.3183595 C24.7603456,15.3323614 24.35393,14.9486473 24.339928,14.4613101 C24.3259261,13.9739729 24.7096402,13.5675572 25.1969774,13.5535553 L25.8297363,13.5353352 L14.915916,4.05736924 L4.20731864,13.5610411 L4.59573092,13.5610411 C5.08326316,13.5610411 5.47848612,13.956264 5.47848612,14.4437963 C5.47848612,14.9313285 5.08326316,15.3265515 4.59573092,15.3265515 L4.59587217,15.3266927 Z M11.9516947,26.7338672 C11.7541468,26.7339047 11.5646771,26.6554553 11.4249765,26.5157811 C11.2852758,26.3761069 11.2067905,26.1866522 11.2067905,25.9891043 L11.2067905,19.7589712 C11.2067905,19.6246512 11.2409708,19.0719758 11.7590422,18.5452888 C12.3881288,17.9060328 13.4544971,17.5818851 14.9287689,17.5818851 C16.3808659,17.5818851 17.4357937,17.9104112 18.0640329,18.5584242 C18.5943922,19.1054499 18.6285725,19.6812888 18.6275838,19.8341114 L18.6275838,25.9652346 C18.6275838,26.3765948 18.2941105,26.7100681 17.8827503,26.7100681 C17.4713901,26.7100681 17.1379168,26.3765948 17.1379168,25.9652346 L17.1379168,19.8428683 C17.1329733,19.8108066 17.1017591,19.6745092 16.9167336,19.5245114 C16.7079797,19.3553049 16.1719707,19.0715521 14.9287689,19.0715521 C13.4867,19.0715521 12.9744195,19.4341173 12.821032,19.589906 C12.7457506,19.6664585 12.7141127,19.7317117 12.700836,19.7728128 C12.6992423,19.7777978 12.6978289,19.7828387 12.6965988,19.7879256 L12.6965988,25.9891043 C12.6965988,26.1866522 12.6181136,26.3761069 12.4784129,26.5157811 C12.3387122,26.6554553 12.1492425,26.7339047 11.9516947,26.7338672 Z M12.1447709,20.7973738 L11.8964695,26.479775 L5.33103069,26.1211645 L4.86211113,19.1142068 L4.99996218,14.5350378 L3.04137557,13.900584 L14.8759448,3.16952937 L26.5446974,13.3487561 L25.3585569,14.4798127 L24.8619541,24.6867226 L24.3930345,26.2591568 L18.2137482,26.479775 L18.1034391,22.3695255 L17.7171454,19.6108096 L16.9446993,18.9763558 L15.4274903,18.7280544 L13.551812,18.8935887 L12.3930723,19.0591229 L12.1447709,20.7973738 Z" id="Shape" fill="#B18354" fill-rule="nonzero"></path>
            </g>
        </g>
    </g>
</svg>