<?xml version="1.0" encoding="UTF-8"?>
<svg width="50px" height="50px" viewBox="0 0 50 50" version="1.1" xmlns="http://www.w3.org/2000/svg" xmlns:xlink="http://www.w3.org/1999/xlink">
    <!-- Generator: Sketch 50.2 (55047) - http://www.bohemiancoding.com/sketch -->
    <title>wifi_slice</title>
    <desc>Created with Sketch.</desc>
    <defs>
        <linearGradient x1="19.7464225%" y1="10.8238281%" x2="77.6411856%" y2="90.0563353%" id="linearGradient-1">
            <stop stop-color="#F8C47B" offset="0%"></stop>
            <stop stop-color="#BB650D" offset="100%"></stop>
        </linearGradient>
    </defs>
    <g id="Page-1" stroke="none" stroke-width="1" fill="none" fill-rule="evenodd">
        <g id="Artboard" transform="translate(-200.000000, -255.000000)">
            <g id="wifi" transform="translate(200.000000, 255.000000)">
                <rect id="Rectangle-2" fill="url(#linearGradient-1)" x="0" y="0" width="50" height="50" rx="20"></rect>
                <g id="Group-3" transform="translate(10.000000, 11.000000)" fill="#FFFFFF" fill-rule="nonzero">
                    <path d="M30.4112337,23.5802857 L27.3105595,14.4699021 C27.0318132,13.6507641 26.2119804,13.0938132 25.2851762,13.0939643 L22.882179,13.0939643 C21.3086196,15.4523807 19.1105839,17.3892671 17.646573,18.6739748 L17.3931477,18.8966699 C16.8465445,19.3790076 16.1205039,19.6477455 15.365745,19.6470964 C14.6086173,19.6475304 13.8804626,19.3774056 13.3327891,18.8929271 L13.0384725,18.6337399 C11.4946982,17.2774516 9.35219394,15.3878178 7.82255495,13.0939643 L5.25195374,13.0939643 C4.3162113,13.0938567 3.49070339,13.6614538 3.21950273,14.4914231 L0.314198306,23.3823864 C-0.163876972,24.8453438 1.26176674,26.23251 2.86157729,25.8619752 L9.41176405,24.3442797 C10.0355756,24.1997666 10.6964476,24.3250104 11.2089636,24.6848723 L16.4026686,28.3312714 C16.9214176,28.6955949 17.5918442,28.8192362 18.2215759,28.6667176 L28.922486,26.0762491 C29.4852913,25.9401219 29.9631972,25.595988 30.244589,25.1242199 C30.5259808,24.6524519 30.5862185,24.0943597 30.4112337,23.5802857 Z" id="Shape"></path>
                    <path d="M14.8890898,17.5498179 C15.251136,17.8620461 15.8171519,17.8638935 16.1791982,17.5521273 C18.5064926,15.5498949 23.0223819,11.8304076 23.0223819,7.67952811 C23.0223819,3.93371387 19.6701397,0.897341175 15.5351638,0.897341175 C11.4001879,0.897341175 8.04794575,3.93371387 8.04794575,7.67906622 C8.04794575,11.843802 12.5057037,15.4953935 14.8890898,17.5498179 Z M15.5351638,5.13320582 C16.5484445,5.12084417 17.4906496,5.60340471 18.0012706,6.39624916 C18.5118916,7.18909362 18.5118916,8.16950074 18.0012706,8.96234519 C17.4906496,9.75518965 16.5484445,10.2377502 15.5351638,10.2253885 C13.9974787,10.2066293 12.7618114,9.07221823 12.7618114,7.67929718 C12.7618114,6.28637613 13.9974787,5.15196501 15.5351638,5.13320582 Z" id="Shape"></path>
                </g>
            </g>
        </g>
    </g>
</svg>