<?xml version="1.0" encoding="UTF-8"?>
<svg width="50px" height="50px" viewBox="0 0 50 50" version="1.1" xmlns="http://www.w3.org/2000/svg" xmlns:xlink="http://www.w3.org/1999/xlink">
    <!-- Generator: Sketch 50.2 (55047) - http://www.bohemiancoding.com/sketch -->
    <title>yy_slice</title>
    <desc>Created with Sketch.</desc>
    <defs>
        <linearGradient x1="19.7464225%" y1="10.8238281%" x2="77.6411856%" y2="90.0563353%" id="linearGradient-1">
            <stop stop-color="#F8C47B" offset="0%"></stop>
            <stop stop-color="#BB650D" offset="100%"></stop>
        </linearGradient>
    </defs>
    <g id="Page-1" stroke="none" stroke-width="1" fill="none" fill-rule="evenodd">
        <g id="Artboard" transform="translate(-9.000000, -255.000000)">
            <g id="yy" transform="translate(9.000000, 255.000000)">
                <rect id="Rectangle-2" fill="url(#linearGradient-1)" x="0" y="0" width="50" height="50" rx="20"></rect>
                <path d="M39.0951385,32.1282126 C39.0951385,36.8609761 36.7249847,36.8609761 25.3050044,36.8609761 C13.8850892,36.8609761 11.5148702,36.8609761 11.5148702,32.1282126 C11.5148702,27.001072 17.7634932,16.7467313 25.3050044,16.7467313 C32.8464504,16.7467313 39.0951385,27.001072 39.0951385,32.1282126 Z M25.3050044,18.9158947 C22.0729468,18.9158947 19.4873007,21.2822764 19.4873007,24.2402536 C19.4873007,27.1982308 22.0729468,29.5646125 25.3050044,29.5646125 C28.537062,29.5646125 31.1227081,27.1982308 31.1227081,24.2402536 C31.1227081,21.2822764 28.537062,18.9158947 25.3050044,18.9158947 Z M13.2386777,22.859904 C15.6088316,19.3103314 19.7027929,15.5635405 25.3050044,15.5635405 C30.9072158,15.5635405 35.4320965,19.7047085 37.371331,22.859904 C38.4486619,24.437472 40.3878964,24.2403132 41.2498002,22.859904 C41.8962117,21.8739315 43.619954,13 25.3050044,13 C6.98998959,13 8.71379708,22.0711499 9.3602086,22.859904 C10.6530316,24.437472 12.8077584,23.6487178 13.2386777,22.859904 Z" id="Shape" fill="#FFFFFF" fill-rule="nonzero"></path>
            </g>
        </g>
    </g>
</svg>