<?xml version="1.0" encoding="UTF-8"?>
<svg width="50px" height="50px" viewBox="0 0 50 50" version="1.1" xmlns="http://www.w3.org/2000/svg" xmlns:xlink="http://www.w3.org/1999/xlink">
    <!-- Generator: Sketch 50.2 (55047) - http://www.bohemiancoding.com/sketch -->
    <title>zx_slice</title>
    <desc>Created with Sketch.</desc>
    <defs>
        <linearGradient x1="19.7464225%" y1="10.8238281%" x2="77.6411856%" y2="90.0563353%" id="linearGradient-1">
            <stop stop-color="#F8C47B" offset="0%"></stop>
            <stop stop-color="#BB650D" offset="100%"></stop>
        </linearGradient>
    </defs>
    <g id="Page-1" stroke="none" stroke-width="1" fill="none" fill-rule="evenodd">
        <g id="Artboard" transform="translate(-297.000000, -255.000000)">
            <g id="zx" transform="translate(297.000000, 255.000000)">
                <rect id="Rectangle-2" fill="url(#linearGradient-1)" x="0" y="0" width="50" height="50" rx="20"></rect>
                <path d="M25.5,37 C25.2759674,37 24.7550916,36.5960573 23.9373727,35.788172 C23.1196538,34.9802867 22.7107943,34.4664277 22.7107943,34.246595 C22.7107943,33.8948626 23.0608452,33.5980884 23.760947,33.3562724 C24.4610489,33.1144564 25.0407332,32.9935484 25.5,32.9935484 C25.9592668,32.9935484 26.5389511,33.1144564 27.239053,33.3562724 C27.9391548,33.5980884 28.2892057,33.8948626 28.2892057,34.246595 C28.2892057,34.4664277 27.8803462,34.9802867 27.0626273,35.788172 C26.2449084,36.5960573 25.7240326,37 25.5,37 Z M30.0366599,32.5318996 C30.0142566,32.5318996 29.790224,32.3945042 29.3645621,32.1197133 C28.9389002,31.8449223 28.3704175,31.5701314 27.6591141,31.2953405 C26.9478106,31.0205496 26.2281059,30.8831541 25.5,30.8831541 C24.7718941,30.8831541 24.0521894,31.0205496 23.3408859,31.2953405 C22.6295825,31.5701314 22.0639002,31.8449223 21.6438391,32.1197133 C21.223778,32.3945042 20.996945,32.5318996 20.9633401,32.5318996 C20.7617108,32.5318996 20.2380346,32.1197133 19.3923116,31.2953405 C18.5465886,30.4709677 18.1237271,29.9598566 18.1237271,29.7620072 C18.1237271,29.6191159 18.1797352,29.4927121 18.2917515,29.3827957 C19.1654786,28.5364397 20.2632383,27.8714456 21.5850305,27.3878136 C22.9068228,26.9041816 24.2118126,26.6623656 25.5,26.6623656 C26.7881874,26.6623656 28.0931772,26.9041816 29.4149695,27.3878136 C30.7367617,27.8714456 31.8345214,28.5364397 32.7082485,29.3827957 C32.8202648,29.4927121 32.8762729,29.6191159 32.8762729,29.7620072 C32.8762729,29.9598566 32.4534114,30.4709677 31.6076884,31.2953405 C30.7619654,32.1197133 30.2382892,32.5318996 30.0366599,32.5318996 Z M34.6237271,28.0473118 C34.5005092,28.0473118 34.3716904,28.0033453 34.2372709,27.9154122 C32.7138493,26.7612903 31.302444,25.9121864 30.003055,25.3681004 C28.703666,24.8240143 27.2026477,24.5519713 25.5,24.5519713 C24.5478615,24.5519713 23.5929226,24.6728793 22.6351833,24.9146953 C21.677444,25.1565114 20.8429226,25.4477897 20.1316191,25.7885305 C19.4203157,26.1292712 18.7846232,26.4700119 18.2245418,26.8107527 C17.6644603,27.1514934 17.2219959,27.4427718 16.8971487,27.6845878 C16.5723014,27.9264038 16.3986762,28.0473118 16.3762729,28.0473118 C16.1858452,28.0473118 15.6705703,27.6351254 14.8304481,26.8107527 C13.9903259,25.9863799 13.5702648,25.4752688 13.5702648,25.2774194 C13.5702648,25.1455197 13.6262729,25.0246117 13.7382892,24.9146953 C15.2169043,23.4637993 17.009165,22.3371565 19.1150713,21.534767 C21.2209776,20.7323775 23.3492872,20.3311828 25.5,20.3311828 C27.6507128,20.3311828 29.7790224,20.7323775 31.8849287,21.534767 C33.990835,22.3371565 35.7830957,23.4637993 37.2617108,24.9146953 C37.3737271,25.0246117 37.4297352,25.1455197 37.4297352,25.2774194 C37.4297352,25.4752688 37.0096741,25.9863799 36.1695519,26.8107527 C35.3294297,27.6351254 34.8141548,28.0473118 34.6237271,28.0473118 Z M39.1771894,23.5792115 C39.0539715,23.5792115 38.9307536,23.5297491 38.8075356,23.4308244 C36.802444,21.7051374 34.7217413,20.4053763 32.5654277,19.5315412 C30.4091141,18.6577061 28.0539715,18.2207885 25.5,18.2207885 C22.9460285,18.2207885 20.5908859,18.6577061 18.4345723,19.5315412 C16.2782587,20.4053763 14.197556,21.7051374 12.1924644,23.4308244 C12.0692464,23.5297491 11.9460285,23.5792115 11.8228106,23.5792115 C11.6323829,23.5792115 11.1143075,23.1670251 10.2685845,22.3426523 C9.42286151,21.5182796 9,21.0071685 9,20.809319 C9,20.6664277 9.05600815,20.5400239 9.16802444,20.4301075 C11.2627291,18.3856631 13.7550916,16.8028674 16.645112,15.6817204 C19.5351324,14.5605735 22.4867617,14 25.5,14 C28.5132383,14 31.4648676,14.5605735 34.354888,15.6817204 C37.2449084,16.8028674 39.7372709,18.3856631 41.8319756,20.4301075 C41.9439919,20.5400239 42,20.6664277 42,20.809319 C42,21.0071685 41.5771385,21.5182796 40.7314155,22.3426523 C39.8856925,23.1670251 39.3676171,23.5792115 39.1771894,23.5792115 Z" id="Shape" fill="#FFFFFF" fill-rule="nonzero"></path>
            </g>
        </g>
    </g>
</svg>