<?xml version="1.0" encoding="UTF-8"?>
<svg width="50px" height="50px" viewBox="0 0 50 50" version="1.1" xmlns="http://www.w3.org/2000/svg" xmlns:xlink="http://www.w3.org/1999/xlink">
    <!-- Generator: Sketch 50.2 (55047) - http://www.bohemiancoding.com/sketch -->
    <title>zx_slice</title>
    <desc>Created with Sketch.</desc>
    <defs>
        <linearGradient x1="19.7464225%" y1="10.8238281%" x2="77.6411856%" y2="90.0563353%" id="linearGradient-1">
            <stop stop-color="#F8C47B" offset="0%"></stop>
            <stop stop-color="#BB650D" offset="100%"></stop>
        </linearGradient>
    </defs>
    <g id="Page-1" stroke="none" stroke-width="1" fill="none" fill-rule="evenodd">
        <g id="Artboard" transform="translate(-306.000000, -255.000000)">
            <g id="zx" transform="translate(306.000000, 255.000000)">
                <rect id="Rectangle-2" fill="url(#linearGradient-1)" x="0" y="0" width="50" height="50" rx="20"></rect>
                <path d="M24.7365607,11 C17.1491067,11 11,16.3817588 11,23.0194906 C11,26.8149382 13.012998,30.190581 16.1512103,32.3962762 L16.1512103,38.4765625 L22.1695582,34.8256379 C23.0022855,34.9632788 23.8591001,35.0424223 24.7365607,35.0424223 C32.3240148,35.0424223 38.4731215,29.6606635 38.4731215,23.0229317 C38.4765625,16.3817588 32.3240148,11 24.7365607,11 Z M29.0309565,27.3138864 L20.445606,27.3138864 C19.970745,27.3138864 19.5853505,26.9284919 19.5853505,26.4536308 C19.5853505,25.9787698 19.970745,25.5933753 20.445606,25.5933753 L29.0309565,25.5933753 C29.5058175,25.5933753 29.891212,25.9787698 29.891212,26.4536308 C29.891212,26.9284919 29.5058175,27.3138864 29.0309565,27.3138864 Z M30.7480266,22.1592351 L18.7285359,22.1592351 C18.2536749,22.1592351 17.8682804,21.7738406 17.8682804,21.2989795 C17.8682804,20.8241185 18.2536749,20.438724 18.7285359,20.438724 L30.7480266,20.438724 C31.2228876,20.438724 31.6082821,20.8241185 31.6082821,21.2989795 C31.6082821,21.7772816 31.2228876,22.1592351 30.7480266,22.1592351 Z" id="Shape-Copy-6" fill="#FFFFFF" fill-rule="nonzero"></path>
            </g>
        </g>
    </g>
</svg>