<?xml version="1.0" encoding="UTF-8"?>
<svg width="179px" height="179px" viewBox="0 0 179 179" version="1.1" xmlns="http://www.w3.org/2000/svg" xmlns:xlink="http://www.w3.org/1999/xlink">
    <!-- Generator: Sketch 50.2 (55047) - http://www.bohemiancoding.com/sketch -->
    <title>zw_slice</title>
    <desc>Created with Sketch.</desc>
    <defs></defs>
    <g id="Page-1" stroke="none" stroke-width="1" fill="none" fill-rule="evenodd">
        <g id="Artboard" transform="translate(-99.000000, -132.000000)" fill-rule="nonzero">
            <g id="zw" transform="translate(99.000000, 132.000000)">
                <path d="M89.5,0 C40.0705149,-3.0267663e-15 6.05336607e-15,40.0716172 0,89.5024621 C0,138.567302 44.9715834,179 89.5,179 C138.927872,179 179,138.931694 179,89.5024621 C179,40.0716172 138.929485,3.0267663e-15 89.5,0 Z" id="Shape" fill="#EFEEEE"></path>
                <path d="M124.403549,134.602137 C124.339447,135.941385 123.200598,136.980552 121.848594,136.933461 L56.2549545,136.933461 C54.9029508,136.980552 53.7641015,135.941385 53.7,134.602137 L53.7,78.8315844 C53.7,77.5434791 54.4066896,76.3386353 55.8744294,75.3345989 C55.8744294,75.3345989 80.7568203,52.805 89.0493033,52.805 C97.1539947,52.805 123.039588,75.8880433 123.039588,75.8880433 C124.620991,76.8675911 124.393665,77.5483768 124.393665,78.8266867 L124.403549,134.602137 Z" id="Shape" fill="#CECECF"></path>
                <path d="M122.634546,79.1023409 C122.634546,78.9728255 122.63619,78.8654973 122.640352,78.671522 C122.655926,77.9457269 122.631933,77.7684489 122.489454,77.5552815 C122.361893,77.3644335 122.119558,77.1476609 121.710482,76.8883893 C121.576555,76.7843406 121.576555,76.7843406 121.516283,76.7295659 C121.45608,76.6749102 121.384712,76.6102897 121.302511,76.5360607 C121.067232,76.3236005 120.792564,76.0769776 120.481146,75.7990431 C119.590688,75.004329 118.584818,74.1185358 117.484645,73.1644817 C114.341517,70.4388061 111.073852,67.7132727 107.851201,65.1708209 C106.421772,64.0430989 105.030433,62.9750056 103.685959,61.9759465 C96.6271441,56.7306452 91.2608965,53.6938696 88.6025593,53.6938696 C85.919434,53.6938696 80.7633578,56.5603414 74.0479218,61.5379381 C72.643293,62.5790731 71.1869347,63.7000494 69.6892911,64.8893829 C66.5655455,67.3700633 63.408059,70.0294795 60.3779621,72.6890383 C59.3173563,73.619947 58.3485935,74.4842377 57.4917276,75.2596369 C57.192081,75.5307945 56.9279102,75.7713925 56.7017199,75.9786478 C56.6227083,76.0510451 56.5541296,76.1140645 56.4962967,76.1673583 C55.1340116,77.1463348 54.565691,78.0953373 54.565691,79.1072911 L54.565691,135.451769 C54.6156407,136.30863 55.3307173,136.970317 56.1781213,136.940115 L121.00093,136.939564 C121.87926,136.970316 122.594321,136.308666 122.644305,135.451839 L122.634546,79.1023409 Z M123.94732,76.5550358 C124.36349,77.1776819 124.42393,77.6242665 124.400627,78.7102928 C124.396728,78.8920423 124.395237,78.9893459 124.395237,79.1021844 L124.405,135.475048 C124.318147,137.353037 122.796678,138.778926 120.986614,138.723434 L56.2233864,138.723434 C54.4133218,138.778926 52.8918527,137.353037 52.805987,135.517429 L52.805,79.1072911 C52.805,77.4800521 53.6686683,76.0213084 55.2827846,74.8742869 C55.3706606,74.7932785 55.4404693,74.7291288 55.5207219,74.6555944 C55.7495721,74.4459018 56.016448,74.2028402 56.3188535,73.9291859 C57.1821367,73.1479796 58.157537,72.2777671 59.2251032,71.3407492 C62.2754976,68.663375 65.4544749,65.9858581 68.6031238,63.485401 C70.1154778,62.2843855 71.5872205,61.1515676 73.0083282,60.0982181 C80.0571769,54.8734902 85.3877654,51.91 88.6025593,51.91 C91.8002611,51.91 97.3220815,55.0348148 104.727257,60.5374915 C106.08597,61.5471315 107.490686,62.6254931 108.932943,63.7633356 C112.179165,66.324384 115.467174,69.0668865 118.629543,71.8092469 C119.736294,72.7690053 120.748438,73.6603239 121.644964,74.4604536 C121.958989,74.7407144 122.236212,74.9896323 122.474005,75.2043623 C122.557379,75.27965 122.629908,75.3453226 122.691264,75.4010244 C123.275866,75.784695 123.67533,76.148102 123.94732,76.5550358 Z" id="Shape" fill="#757575"></path>
                <path d="M93.2756209,103.148378 C97.5763044,101.725529 101.054078,98.4038937 104.806155,95.9597654 C108.474961,93.575129 111.614754,90.4121394 115.455,88.3249628 L115.455,56.7644738 C110.625303,52.4413908 106.740973,46.948299 102.072919,42.2930525 L64.1015083,42.065 C62.7700427,42.1469398 61.7370834,43.2731813 61.7552356,44.6231546 L61.7552356,87.5366942 C61.927276,87.5827325 62.0921375,87.6528139 62.2450629,87.7449161 C62.7801359,88.0757361 63.2624105,88.4869624 63.6753585,88.9645015 C63.857455,88.9721317 64.0374072,89.0072218 64.2092703,89.0686124 C67.7164336,90.357605 70.02352,93.1041509 73.0702457,95.1268778 C74.9658773,96.3861245 76.9888639,97.4470646 78.9089868,98.6567346 C80.4274514,99.6135637 81.8822384,100.768699 83.6260235,101.264466 C84.1829135,101.404457 84.6247356,101.832768 84.7869142,102.389856 C85.7149223,102.846949 86.6175509,103.355041 87.4907607,103.911858 C88.0902514,104.248412 88.7242515,104.517721 89.381494,104.715 C90.3611486,104.521651 91.2820239,104.338218 92.1931026,104.105207 C92.3924057,103.636982 92.7903819,103.285214 93.2756209,103.148378 Z" id="Shape" fill="#FFFFFF"></path>
                <path d="M92.9466233,102.258842 C92.5325719,102.374166 92.2032433,102.660926 92.0382953,103.042674 C92.0018149,103.127102 91.9279743,103.189818 91.8385127,103.212358 C91.0580963,103.408981 90.3926761,103.548292 88.9951991,103.82 C88.172264,103.611693 87.5147214,103.336539 86.8787262,102.984279 C86.0097627,102.438414 85.1115241,101.940316 84.18803,101.492215 C84.1130394,101.455828 84.0568896,101.389679 84.0333353,101.309973 C83.8999811,100.858715 83.5367432,100.511824 83.0702471,100.39616 C81.9042009,100.069581 81.0437616,99.5977753 79.2972975,98.4537204 C79.1820824,98.3782314 79.1258685,98.341411 79.0671258,98.3029918 C78.7227205,98.0777426 78.4878968,97.9267276 78.250127,97.7791312 C77.5621518,97.3521587 76.9860696,97.0146497 75.7374814,96.2977126 C74.0308804,95.3177282 73.2630568,94.8611665 72.3726491,94.2784799 C71.5022809,93.7092389 70.776633,93.1576156 69.473518,92.108688 C69.4363734,92.0787888 69.1457686,91.8447067 69.0605343,91.7761426 C66.6481337,89.8355643 65.3248006,88.9597769 63.5259294,88.30846 C63.3809587,88.257446 63.2291679,88.2282877 63.0755699,88.2219474 C62.9943196,88.2185935 62.9180122,88.1821702 62.8644851,88.1211918 C62.4690141,87.6706682 62.0071557,87.2827104 61.4976865,86.9723841 C61.367603,86.8952046 61.2273705,86.8364798 61.081035,86.7979029 C60.9508838,86.7635924 60.8602374,86.6462977 60.8602374,86.5121951 L60.8602648,44.0038 C60.8398577,42.5087178 62.0012329,41.2613053 63.5181609,41.17 L101.702816,41.3959209 C101.780189,41.3963786 101.854321,41.426923 101.909409,41.481042 C103.566085,43.1085903 104.925826,44.6001097 107.515884,47.5595123 C107.59388,47.6486305 107.905961,48.005307 107.984026,48.0945035 C111.390606,51.9868637 113.135476,53.8492106 115.354963,55.8063222 C115.418578,55.8624174 115.455,55.942985 115.455,56.0276125 L115.455,87.2930954 C115.455,87.4018979 115.394983,87.5019015 115.29877,87.5534154 C113.478808,88.5278477 112.094906,89.5094889 109.197454,91.7583112 C106.925783,93.5215049 105.913561,94.2705198 104.610335,95.1049815 C103.796107,95.6274825 103.00425,96.1797897 101.828806,97.0315119 C101.718343,97.1115526 101.603457,97.1949546 101.462,97.2977645 C101.390906,97.3494346 101.141226,97.5309776 101.094626,97.5648511 C97.3544416,100.28356 95.4630002,101.438705 92.9466233,102.258842 Z M100.74481,97.0873819 C100.79136,97.0535453 101.041062,96.8719866 101.112216,96.8202722 C101.253885,96.7173087 101.368987,96.6337499 101.479712,96.5535185 C102.663503,95.6957491 103.463144,95.1380129 104.289195,94.6079245 C105.572648,93.7861234 106.575063,93.0443649 108.723775,91.3766087 C111.673751,89.0870169 113.078528,88.085216 114.861576,87.1170101 L114.861576,56.1604736 C112.664213,54.2132445 110.908692,52.3357473 107.53671,48.4829188 C107.458612,48.393684 107.146531,48.0370075 107.068568,47.9479274 C104.533022,45.0508102 103.183131,43.5680732 101.578469,41.9862829 L63.5344245,41.7605383 C62.3536782,41.8321214 61.4375326,42.8161372 61.4536613,43.9997822 L61.4536613,86.2972034 C61.5743926,86.3429532 61.6914871,86.3993725 61.8043153,86.4663287 C62.3330601,86.788372 62.8128655,87.1838256 63.2293642,87.6406193 C63.3978582,87.6578254 63.5641916,87.6950353 63.7261296,87.7520301 C65.6069622,88.4330093 66.9725979,89.3367927 69.4333773,91.316288 C69.5187955,91.3849998 69.8095029,91.6191647 69.8465071,91.6489507 C71.1351882,92.68626 71.8489593,93.2288548 72.6984248,93.784425 C73.5762089,94.3588507 74.3370545,94.8112631 75.9256896,95.7235109 C77.2882551,96.505894 77.8683415,96.8457489 78.5639668,97.2774692 C78.8066157,97.4280943 79.0448281,97.5812886 79.3928353,97.8088937 C79.4517772,97.8474431 79.5081861,97.8843912 79.6233706,97.9598601 C81.3195814,99.0709957 82.1428109,99.5223977 83.2221509,99.8248353 C83.8405718,99.9779812 84.3396223,100.425611 84.5599967,101.015508 C85.4635481,101.458772 86.3426449,101.948725 87.181035,102.475907 C87.7439256,102.787211 88.3380469,103.03856 88.9535701,103.22584 C90.2112419,102.98099 90.8595092,102.845883 91.5582986,102.672954 C91.8087902,102.197208 92.2452959,101.842287 92.7680399,101.695117 C95.2028991,100.900688 97.0571918,99.7678813 100.74481,97.0873819 Z" id="Shape" fill="#757575"></path>
                <path d="M115.455,56.385 L103.705256,54.9814633 C102.333165,54.8146093 101.35724,53.5582968 101.135,52.1498526 L102.284852,42.065 C106.657186,47.0902502 111.850843,51.080024 115.455,56.385 Z" id="Shape" fill="#FFFFFF"></path>
                <path d="M107.680522,47.6518733 C107.442622,47.4309992 106.495739,46.554168 106.260896,46.3361456 C104.361947,44.5732108 103.108724,43.3633693 101.931956,42.1202462 L100.839513,51.1307574 C101.071486,52.4235043 102.01643,53.4366993 103.196665,53.5716723 L114.525711,54.8443303 C112.883761,52.6623452 111.006367,50.7396998 107.680522,47.6518733 Z M115.121264,55.4879208 L103.126706,54.1405015 C101.647989,53.9713945 100.503386,52.7305436 100.243796,51.1834121 C100.239432,51.1573981 100.238827,51.1309302 100.242,51.1047575 L101.41575,41.4236275 C101.445542,41.1779005 101.763985,41.0815912 101.93511,41.266553 C103.236365,42.6730202 104.547164,43.9483643 106.675655,45.9244003 C106.910133,46.1420835 107.857025,47.0189232 108.095295,47.2401407 C111.710193,50.5963335 113.633023,52.5929078 115.401069,55.0402582 C115.547459,55.2428936 115.376395,55.5165811 115.121264,55.4879208 Z" id="Shape" fill="#757575"></path>
                <path d="M82.34,71.6 C82.34,73.0828846 81.1378846,74.285 79.655,74.285 C78.1721154,74.285 76.97,73.0828846 76.97,71.6 C76.97,70.1171154 78.1721154,68.915 79.655,68.915 C81.1378846,68.915 82.34,70.1171154 82.34,71.6 Z" id="Shape" fill="#757575"></path>
                <path d="M101.134995,71.6000023 C101.134995,73.0828856 99.9328809,74.285 98.4499977,74.285 C96.9671144,74.285 95.765,73.0828856 95.765,71.6000023 C95.765,70.1171191 96.9671144,68.9150047 98.4499977,68.9150047 C99.1625104,68.9136741 99.8462234,69.1961297 100.350047,69.6999531 C100.85387,70.2037766 101.136326,70.8874896 101.134995,71.6000023 Z" id="Shape" fill="#757575"></path>
                <path d="M140.627796,59.4427436 L140.599237,59.07 L140.981173,59.1273081 C144.536032,59.660702 146.45816,61.9411646 146.745556,65.0578859 C146.9789,67.5884252 145.997133,70.2351714 144.694081,70.5095807 C142.341081,71.0050978 140.611221,70.5957878 138.248692,68.8493444 C135.974664,67.1683228 136.864171,64.7806184 139.302301,62.9922431 C139.773403,62.6466888 140.111582,62.147085 140.333242,61.5285808 C140.474681,61.1339201 140.562137,60.7091103 140.604936,60.2761693 C140.634465,59.9774599 140.639662,59.7125415 140.630992,59.5031594 C140.629713,59.4722728 140.628492,59.4518207 140.627796,59.4427436 Z M140.913627,61.7230927 C140.654973,62.4448217 140.250609,63.0422037 139.673511,63.4655062 C137.509047,65.0531467 136.778293,67.01471 138.621733,68.3774294 C140.844506,70.0205615 142.391394,70.3865778 144.563379,69.9291803 C145.467539,69.7387737 146.342891,67.3789105 146.133732,65.1106446 C145.879981,62.3587876 144.272407,60.3589122 141.24966,59.7763259 C141.244917,60.3742111 141.152304,61.0571053 140.913627,61.7230927 Z" id="Shape" fill="#757575"></path>
                <path d="M132.940371,120.317235 L132.91287,119.93 L133.268014,119.989636 C135.507203,120.365641 136.728031,121.941929 136.912478,124.080601 C137.063217,125.82842 136.439629,127.655938 135.570078,127.853065 C134.086995,128.189281 132.995562,127.907864 131.513784,126.719833 C130.721467,126.084585 130.501612,125.267488 130.793477,124.408433 C131.016673,123.751493 131.534169,123.102569 132.161004,122.605562 C132.436335,122.387256 132.634771,122.068679 132.765488,121.67064 C132.849294,121.415449 132.901309,121.139551 132.926752,120.857921 C132.944353,120.66309 132.947395,120.490365 132.942177,120.354494 C132.94142,120.334782 132.94072,120.322145 132.940371,120.317235 Z M133.302201,121.876455 C133.135868,122.382945 132.873781,122.80371 132.497913,123.10173 C131.953781,123.533163 131.507313,124.09302 131.328092,124.620527 C131.122684,125.22511 131.265013,125.75408 131.853131,126.225609 C133.207053,127.31113 134.133353,127.549969 135.453145,127.250771 C135.952169,127.137643 136.472613,125.612404 136.34543,124.137706 C136.193344,122.374269 135.264211,121.08421 133.511684,120.664874 C133.498456,121.044504 133.437537,121.464353 133.302201,121.876455 Z" id="Shape" fill="#757575"></path>
                <path d="M31.4175144,105.08776 L31.3889333,104.715 L31.7708577,104.772304 C35.3251638,105.30559 37.2540182,107.585282 37.5527182,110.701432 C37.7952805,113.231933 36.8238493,115.879146 35.5220324,116.153766 C33.1748819,116.648901 31.4678589,116.245849 29.0790321,114.499569 C26.7831792,112.821255 27.6639232,110.434678 30.10067,108.637431 C30.5689761,108.292027 30.9051501,107.792469 31.125384,107.173968 C31.3734968,106.477174 31.4454121,105.743746 31.4207499,105.148859 C31.4194558,105.117645 31.4182198,105.09696 31.4175144,105.08776 Z M31.70612,107.367379 C31.4491624,108.089013 31.0471818,108.68636 30.4731322,109.109757 C28.3098881,110.70528 27.586958,112.664223 29.4493958,114.025702 C31.699145,115.670314 33.224472,116.030465 35.3911369,115.573404 C36.292743,115.383209 37.1585048,113.023951 36.9411345,110.756263 C36.6773336,108.004193 35.06296,106.00397 32.0394333,105.421334 C32.034952,106.019186 31.9431257,106.701777 31.70612,107.367379 Z" id="Shape" fill="#757575"></path>
                <g id="Group-13" transform="translate(26.850000, 29.535000)">
                    <path d="M89.7974195,57.7318258 C89.3994839,58.0187639 88.8443111,57.9287453 88.5574062,57.5307636 C88.2705014,57.1327819 88.3605096,56.5775446 88.7584452,56.2906065 C89.6333376,55.6597507 90.4303963,55.0811836 91.1338358,54.567567 C91.37992,54.3878885 91.596686,54.2291914 91.7821614,54.0930579 C91.8932586,54.0115159 91.9691228,53.9557001 92.0077818,53.9271928 C92.4026344,53.6360259 92.9587358,53.720117 93.2498689,54.1150155 C93.5410019,54.509914 93.4569206,55.0660798 93.0620679,55.3572467 C93.0223602,55.3865273 92.9454334,55.4431249 92.8332575,55.5254587 C92.646611,55.6624517 92.4286574,55.8220182 92.1813665,56.0025778 C91.4751628,56.5182127 90.675263,57.098842 89.7974195,57.7318258 Z" id="Shape" fill="#757575"></path>
                    <path d="M32.2961927,54.128366 C32.5799534,53.7281359 33.1343998,53.6337454 33.5345836,53.917539 C33.6736523,54.0159759 33.7482601,54.0686994 33.8340213,54.1292294 C34.0792521,54.3023126 34.3645528,54.5031519 34.6868921,54.7294324 C35.6081813,55.3761728 36.6412743,56.0969186 37.7619121,56.8731465 C40.9634986,59.0907769 44.2245235,61.3083216 47.3505451,63.3773756 C47.9105476,63.7480306 48.4620565,64.1111273 49.0043606,64.4661237 C56.7676591,69.5480372 62.2807216,72.7058178 63.5631963,72.7058178 C64.5236043,72.7058178 68.5862422,70.3443441 74.3665716,66.4451847 C78.7471618,63.4902286 83.8034776,59.8861923 88.7524452,56.2544439 C89.1479706,55.9641918 89.7038758,56.0495697 89.9940944,56.445141 C90.2843129,56.8407122 90.1989448,57.3966819 89.8034195,57.6869341 C76.2762528,67.6137046 66.0934741,74.4825652 63.5631963,74.4825652 C61.7281767,74.4825652 56.3977812,71.4294128 48.0314359,65.9527403 C47.4865704,65.5960673 46.9325549,65.2313203 46.37009,64.8590355 C43.2325321,62.7823458 39.9615383,60.5580221 36.7504125,58.3337841 C35.626601,57.555358 34.5904757,56.8324967 33.666246,56.183692 C33.3426536,55.9565319 33.056123,55.7548268 32.8096815,55.5808891 C32.7233574,55.5199618 32.6481916,55.4668439 32.5845624,55.4218245 C32.1068117,55.0831069 32.0124321,54.5285962 32.2961927,54.128366 Z" id="Shape" fill="#757575"></path>
                    <path d="M35.4862398,102.582954 C35.1765517,102.963472 34.6170649,103.020862 34.236591,102.711138 C33.856117,102.401414 33.7987338,101.841862 34.1084218,101.461344 L44.4715797,88.7279882 C44.7812678,88.3474702 45.3407547,88.2900802 45.7212286,88.5998042 C46.1017025,88.9095282 46.1590858,89.4690799 45.8493977,89.849598 L35.4862398,102.582954 Z" id="Shape" fill="#757575"></path>
                    <path d="M92.0611805,101.489125 C92.3555275,101.881633 92.275989,102.438467 91.8835263,102.732848 C91.4910636,103.027229 90.9342944,102.947682 90.6399474,102.555173 L81.7572406,90.710191 C81.4628936,90.3176828 81.5424321,89.760849 81.9348947,89.4664678 C82.3273574,89.1720867 82.8841267,89.2516344 83.1784737,89.6441426 L92.0611805,101.489125 Z" id="Shape" fill="#757575"></path>
                    <path d="M105.431511,15.92842 C106.344705,15.2856815 107.098133,14.3207427 107.958229,12.8365303 C108.078706,12.6286308 108.200802,12.4120682 108.348465,12.1456312 C108.417793,12.0205389 108.667657,11.5668748 108.722172,11.4684178 C110.386675,8.47055926 111.592422,5.19695741 112.976623,0.369791854 C113.021703,0.212583913 113.185675,0.121690297 113.342865,0.166775281 C113.500054,0.211860264 113.590938,0.375851082 113.545858,0.533059023 C112.150266,5.39994625 110.931107,8.70995955 109.240057,11.7556329 C109.18616,11.8529734 108.93622,12.3067747 108.866404,12.4327476 C108.717059,12.7022184 108.59322,12.9218748 108.47058,13.1335052 C107.571063,14.6857438 106.771972,15.709165 105.772277,16.412786 C105.17289,16.8344858 104.493729,17.1151118 103.795999,17.2510316 C102.705794,21.4859424 100.087673,25.1712965 96.4429714,27.591625 C96.3514489,27.6532975 95.9854103,27.9092489 95.9307468,27.9468521 C95.8420782,28.0078476 95.7627286,28.0612951 95.6866663,28.1110007 C95.2340684,28.406767 94.9062565,28.5665663 94.6245578,28.58277 C94.4613014,28.5921607 94.3213443,28.4674126 94.3119547,28.3041373 C94.3025651,28.1408621 94.4272987,28.0008887 94.590555,27.991498 C94.7318441,27.9833709 94.9976221,27.8538114 95.3627474,27.6152072 C95.4344931,27.5683224 95.5100783,27.5174105 95.595152,27.458888 C95.6460543,27.423872 96.0154704,27.165559 96.1137395,27.0993484 C99.5735725,24.8017774 102.07572,21.3268126 103.161623,17.3344018 C101.895935,17.4214007 100.629861,17.0362775 99.7200323,16.1578674 C98.6365024,15.1087054 98.4713047,13.1842537 99.1737393,11.6684044 C99.9328424,10.0302647 101.424114,9.48951222 102.92496,10.6686996 C104.358195,11.7960906 104.498709,13.7871421 103.939134,16.6121391 C104.465371,16.4782426 104.974645,16.2498488 105.431511,15.92842 Z M102.559001,11.1343194 C101.386955,10.2134648 100.321624,10.5997666 99.7110242,11.9174364 C99.1063306,13.2223614 99.2483502,14.876802 100.131632,15.7320674 C100.957853,16.5297575 102.14203,16.856033 103.311788,16.7262622 C103.879417,13.9996417 103.782204,12.0964979 102.559001,11.1343194 Z" id="Shape" fill="#757575"></path>
                    <path d="M13.5042261,51.8050674 C15.9986123,51.6496987 17.905026,49.684944 19.9564679,45.8913743 C20.2832052,45.2871648 21.733584,42.4128185 22.1042919,41.7622446 C22.185258,41.6201532 22.3660685,41.570609 22.5081434,41.6515844 C22.6502183,41.7325599 22.6997568,41.9133913 22.6187908,42.0554827 C22.2571319,42.6901759 20.8108731,45.5563573 20.4773496,46.1731159 C18.3354216,50.1340143 16.3076445,52.2238466 13.5409108,52.396179 C13.1501284,52.4203538 12.7584273,52.4046322 12.3741861,52.3517207 C11.3551472,54.3127505 9.31094658,56.285817 7.02980432,57.705957 C5.88910543,58.4131244 5.82915505,58.4499049 5.39709019,58.7000139 C3.55229464,59.7679088 2.11460219,60.2685863 0.450864662,60.2685863 C0.287338546,60.2685863 0.154774436,60.1360068 0.154774436,59.9724618 C0.154774436,59.8089167 0.287338546,59.6763372 0.450864662,59.6763372 C1.99237858,59.6763372 3.33771033,59.2078244 5.10044216,58.1874336 C5.52482874,57.9417694 5.5843618,57.9052449 6.71733362,57.2028684 C8.85349556,55.8729863 10.7743256,54.0392704 11.7650258,52.2352434 C10.4402926,51.9094657 9.2655209,51.1349261 8.61348099,50.0320436 C7.78306062,48.645884 7.5734295,47.0342031 8.410136,46.0896032 C9.30103448,45.0838232 11.3243801,45.0082404 12.4869625,45.8004791 C14.0641115,46.8359962 13.8085754,49.2555905 12.6474118,51.787914 C12.9306762,51.8165846 13.217677,51.8227941 13.5042261,51.8050674 Z M12.1577518,46.2927477 C11.2212271,45.6545979 9.53064407,45.7177503 8.85339851,46.4823267 C8.23243203,47.183367 8.40859108,48.5377087 9.12234132,49.7291291 C9.70978353,50.7227427 10.8068331,51.4205649 12.0392182,51.6907908 C13.1359707,49.3609052 13.4092879,47.1145256 12.1577518,46.2927477 Z" id="Shape" fill="#757575"></path>
                    <path d="M49.3057519,18.5150235 C49.3057519,18.3514785 49.438316,18.218899 49.6018421,18.218899 C49.7653682,18.218899 49.8979323,18.3514785 49.8979323,18.5150235 L49.8979323,29.4716322 C49.8979323,29.6351773 49.7653682,29.7677568 49.6018421,29.7677568 C49.438316,29.7677568 49.3057519,29.6351773 49.3057519,29.4716322 L49.3057519,18.5150235 Z" id="Shape" fill="#757575"></path>
                    <path d="M46.6409398,22.0685182 C46.6409398,21.9049732 46.773504,21.7723937 46.9370301,21.7723937 C47.1005562,21.7723937 47.2331203,21.9049732 47.2331203,22.0685182 L47.2331203,31.2483796 C47.2331203,31.4119246 47.1005562,31.5445041 46.9370301,31.5445041 C46.773504,31.5445041 46.6409398,31.4119246 46.6409398,31.2483796 L46.6409398,22.0685182 Z" id="Shape" fill="#757575"></path>
                    <path d="M43.9761278,24.4375147 C43.9761278,24.2739696 44.1086919,24.1413901 44.272218,24.1413901 C44.4357442,24.1413901 44.5683083,24.2739696 44.5683083,24.4375147 L44.5683083,33.9135006 C44.5683083,34.0770457 44.4357442,34.2096251 44.272218,34.2096251 C44.1086919,34.2096251 43.9761278,34.0770457 43.9761278,33.9135006 L43.9761278,24.4375147 Z" id="Shape" fill="#757575"></path>
                    <path d="M55.5236466,50.7926004 C56.6837395,50.7926004 56.6837395,52.2732232 57.8438324,52.2732232 C59.0039254,52.2732232 59.0039254,50.7926004 60.1591439,50.7926004 C61.3143625,50.7926004 61.3192368,52.2732232 62.4793297,52.2732232 C63.6394227,52.2732232 63.6394227,50.7926004 64.7995156,50.7926004 C65.9596085,50.7926004 65.9596085,52.2732232 67.1197014,52.2732232 C68.2797943,52.2732232 68.2797943,50.7926004 69.4398872,50.7926004" id="Shape" fill="#FFFFFF"></path>
                    <path d="M55.5236466,51.088725 L55.5236466,50.4964759 C56.1266578,50.4964759 56.4296184,50.7284764 56.916799,51.3502635 C57.2996881,51.8389435 57.4800996,51.9770987 57.8438324,51.9770987 C58.2076119,51.9770987 58.3885065,51.8385153 58.7700703,51.3505015 C59.2564813,50.7283897 59.5588619,50.4964759 60.1591439,50.4964759 C60.759175,50.4964759 61.0620076,50.7281492 61.5484389,51.3476783 C61.9336355,51.8382729 62.1153036,51.9770987 62.4793297,51.9770987 C62.8430626,51.9770987 63.0234741,51.8389435 63.4063632,51.3502635 C63.8935438,50.7284764 64.1965044,50.4964759 64.7995156,50.4964759 C65.4025268,50.4964759 65.7054874,50.7284764 66.192668,51.3502635 C66.5755571,51.8389435 66.7559685,51.9770987 67.1197014,51.9770987 C67.4834343,51.9770987 67.6638457,51.8389435 68.0467348,51.3502635 C68.5339154,50.7284764 68.836876,50.4964759 69.4398872,50.4964759 L69.4398872,51.088725 C69.0761543,51.088725 68.8957429,51.2268801 68.5128538,51.7155602 C68.0256732,52.3373472 67.7227126,52.5693478 67.1197014,52.5693478 C66.5166902,52.5693478 66.2137296,52.3373472 65.726549,51.7155602 C65.3436599,51.2268801 65.1632484,51.088725 64.7995156,51.088725 C64.4357827,51.088725 64.2553712,51.2268801 63.8724821,51.7155602 C63.3853015,52.3373472 63.082341,52.5693478 62.4793297,52.5693478 C61.8764087,52.5693478 61.572166,52.3368539 61.0845357,51.7157977 C60.7006055,51.2268161 60.5200992,51.088725 60.1591439,51.088725 C59.7984332,51.088725 59.6187011,51.2265724 59.2383897,51.7129844 C58.7507939,52.3366115 58.4470002,52.5693478 57.8438324,52.5693478 C57.2408212,52.5693478 56.9378606,52.3373472 56.45068,51.7155602 C56.067791,51.2268801 55.8873795,51.088725 55.5236466,51.088725 Z" id="Shape" fill="#757575"></path>
                    <path d="M114.006259,29.4346675 C113.863146,29.3555424 113.811266,29.175369 113.890381,29.032239 C113.969497,28.8891089 114.14965,28.8372227 114.292763,28.9163478 C114.587883,29.0795144 115.009949,29.4309684 115.426308,30.0106755 C116.922862,32.0943691 117.041842,35.341945 114.941598,39.9586256 C114.873877,40.1074873 114.698316,40.1732585 114.549471,40.1055297 C114.400627,40.0378009 114.334863,39.8622196 114.402584,39.7133579 C116.420029,35.2786856 116.309259,32.2552042 114.945347,30.3561924 C114.733782,30.0616259 114.508121,29.8232034 114.283906,29.6364999 C114.153154,29.5276226 114.055258,29.4617583 114.006259,29.4346675 Z" id="Shape" fill="#757575"></path>
                    <path d="M116.494953,33.7984053 C116.558511,33.9490918 116.487894,34.1227773 116.337225,34.1863427 C116.186556,34.2499081 116.01289,34.1792824 115.949332,34.0285959 C115.503259,32.9710231 114.594714,32.1633334 113.472618,31.82825 C113.315927,31.7814587 113.226832,31.6164895 113.273618,31.459781 C113.320404,31.3030724 113.485354,31.2139669 113.642044,31.2607582 C114.932736,31.6461881 115.979777,32.576999 116.494953,33.7984053 Z" id="Shape" fill="#757575"></path>
                    <path d="M116.221589,37.1527634 C116.231588,37.3160024 116.107378,37.4564408 115.944158,37.4664412 C115.780938,37.4764416 115.640516,37.3522171 115.630516,37.1889781 C115.629285,37.1688822 115.624652,37.1239675 115.61467,37.0578749 C115.597418,36.9436507 115.570946,36.8153278 115.53337,36.6765398 C115.425579,36.2784149 115.250997,35.8801329 114.995352,35.5094872 C114.436747,34.6995968 113.571881,34.1314475 112.321113,33.9089236 C112.160114,33.8802803 112.052816,33.7265301 112.081456,33.5655129 C112.110096,33.4044956 112.263828,33.2971853 112.424827,33.3258285 C113.833413,33.5764297 114.835527,34.2347399 115.482807,35.1731972 C115.779234,35.6029703 115.980567,36.0622798 116.104966,36.5217463 C116.180243,36.7997787 116.213424,37.0194675 116.221589,37.1527634 Z" id="Shape" fill="#757575"></path>
                    <path d="M115.327543,38.5905933 C115.361173,38.7506424 115.258706,38.9076538 115.098675,38.9412881 C114.938645,38.9749224 114.781651,38.8724429 114.748021,38.7123938 C114.744754,38.6968485 114.736748,38.6631867 114.723504,38.6140565 C114.700751,38.529645 114.671758,38.4349398 114.636064,38.3326042 C114.533962,38.039882 114.39944,37.7472746 114.229643,37.4760989 C113.496143,36.3046492 112.391795,35.8964368 110.721375,36.6740413 C110.573122,36.7430553 110.396999,36.6788053 110.327993,36.5305351 C110.258987,36.3822648 110.323229,36.2061212 110.471482,36.1371072 C112.429165,35.2257779 113.847623,35.7500984 114.731536,37.1617672 C114.926781,37.4735866 115.079428,37.805617 115.1952,38.1375325 C115.265033,38.3377413 115.307574,38.4955591 115.327543,38.5905933 Z" id="Shape" fill="#757575"></path>
                    <path d="M116.274273,34.2049994 C116.113302,34.2337936 115.959469,34.1266275 115.930678,33.9656372 C115.901887,33.8046468 116.009041,33.6507961 116.170012,33.6220018 C116.206961,33.6153926 116.285158,33.594088 116.390437,33.552271 C116.570891,33.4805945 116.752011,33.3770194 116.920805,33.2362705 C117.411836,32.8268248 117.706682,32.1902574 117.702552,31.2496799 C117.701834,31.0861364 117.833815,30.952976 117.99734,30.9522579 C118.160864,30.9515397 118.294009,31.0835357 118.294727,31.2470792 C118.299631,32.3638696 117.927016,33.1683365 117.300022,33.6911551 C116.922071,34.0063095 116.542756,34.1569737 116.274273,34.2049994 Z" id="Shape" fill="#757575"></path>
                    <path d="M115.85824,37.0870362 C115.699061,37.0495802 115.600381,36.8901605 115.637832,36.7309624 C115.675284,36.5717643 115.834685,36.4730728 115.993865,36.5105288 C116.025506,36.5179741 116.091283,36.5304882 116.185156,36.543402 C116.689895,36.6128377 117.243647,36.5910104 117.75595,36.415728 C118.414514,36.190403 118.912519,35.7376387 119.203203,34.9906038 C119.262509,34.8381931 119.434125,34.7627223 119.586518,34.8220349 C119.738911,34.8813476 119.814373,35.0529832 119.755067,35.2053939 C119.398869,36.1207914 118.766137,36.6960445 117.947632,36.9760926 C117.334751,37.1857873 116.692959,37.2110848 116.10446,37.1301267 C115.991261,37.1145541 115.907307,37.0985818 115.85824,37.0870362 Z" id="Shape" fill="#757575"></path>
                    <path d="M115.02362,39.5291308 C114.860281,39.5213082 114.734209,39.382539 114.742031,39.2191812 C114.749852,39.0558233 114.888605,38.929737 115.051944,38.9375595 C115.077102,38.9387644 115.12613,38.9406363 115.195786,38.9425285 C115.739782,38.9573061 116.357676,38.9442462 116.939082,38.8824481 C117.910814,38.7791621 118.531665,38.5485257 118.600169,38.2817183 C118.64084,38.1233123 118.802209,38.0278735 118.960597,38.0685496 C119.118985,38.1092258 119.214412,38.2706137 119.173741,38.4290197 C119.014437,39.0494711 118.230216,39.3407971 117.001666,39.4713806 C116.389779,39.5364185 115.747717,39.5499892 115.179707,39.5345593 C115.105831,39.5325524 115.052738,39.5305253 115.02362,39.5291308 Z" id="Shape" fill="#757575"></path>
                    <path d="M114.502061,37.1212359 C114.577645,37.1524215 114.61364,37.2389821 114.582458,37.3145745 C114.551276,37.3901669 114.464725,37.4261657 114.389142,37.3949801 C114.370864,37.3874387 114.327323,37.3737771 114.259216,37.3593292 C113.682234,37.2369304 112.872807,37.3512546 111.850178,37.8939119 C111.777952,37.9322386 111.688335,37.9047509 111.650013,37.8325165 C111.61169,37.7602821 111.639175,37.6706546 111.711401,37.6323279 C112.795322,37.0571458 113.675612,36.9328129 114.320653,37.0696495 C114.406759,37.0879156 114.467481,37.106968 114.502061,37.1212359 Z" id="Shape" fill="#757575"></path>
                    <path d="M113.702996,36.5521819 C113.717597,36.6326401 113.664216,36.7097019 113.583767,36.7243041 C113.503319,36.7389063 113.426266,36.6855195 113.411665,36.6050613 C113.206865,35.4764827 112.274226,34.6603293 111.187721,34.6538093 C111.105959,34.6533187 111.040076,34.5866324 111.040567,34.5048613 C111.041057,34.4230903 111.107736,34.3571995 111.189497,34.3576901 C112.421039,34.3650804 113.473193,35.2858221 113.702996,36.5521819 Z" id="Shape" fill="#757575"></path>
                    <path d="M116.587911,39.3743809 C116.515769,39.4128672 116.426092,39.3855778 116.38761,39.3134283 C116.349128,39.2412788 116.376414,39.1515907 116.448556,39.1131044 C116.468615,39.1024031 116.507071,39.081342 116.561284,39.0507734 C116.652108,38.9995614 116.75343,38.9405355 116.862606,38.874554 C117.174474,38.6860725 117.486284,38.4799463 117.776718,38.263249 C118.28372,37.8849676 118.669415,37.515917 118.883082,37.1779864 C118.959131,37.0577097 119.01172,36.9436191 119.039913,36.8369183 C119.060803,36.7578596 119.141819,36.7107059 119.220869,36.7315977 C119.299918,36.7524895 119.347066,36.8335153 119.326177,36.9125741 C119.28967,37.0507418 119.224593,37.1919227 119.133336,37.3362533 C118.896249,37.7112237 118.4873,38.1025247 117.953769,38.5006004 C117.654886,38.7236013 117.335285,38.9348778 117.015742,39.1279975 C116.903923,39.1955764 116.800037,39.2560957 116.7067,39.3087253 C116.650416,39.3404617 116.609945,39.3626256 116.587911,39.3743809 Z" id="Shape" fill="#757575"></path>
                    <path d="M116.375323,39.2823999 C116.353976,39.2034636 116.400653,39.1221657 116.47958,39.1008159 C116.558507,39.0794661 116.639796,39.1261491 116.661143,39.2050854 C116.667974,39.2303429 116.682656,39.2773997 116.705208,39.3387742 C116.742935,39.44145 116.788584,39.5440207 116.841786,39.6387791 C116.941275,39.81598 117.054398,39.9422836 117.173296,39.9980739 C117.247317,40.0328068 117.279169,40.1209762 117.24444,40.1950057 C117.209712,40.2690353 117.121552,40.3008916 117.047531,40.2661587 C116.862247,40.1792175 116.710538,40.0098322 116.583612,39.7837642 C116.521973,39.6739786 116.470088,39.5573951 116.427289,39.4409167 C116.401525,39.3707987 116.384297,39.3155835 116.375323,39.2823999 Z" id="Shape" fill="#757575"></path>
                    <path d="M116.969276,36.9194443 C116.944592,36.8414869 116.987772,36.758278 117.065721,36.7335919 C117.143669,36.7089059 117.226868,36.7520908 117.251551,36.8300481 C117.395594,37.2849809 117.688355,37.6753744 118.08059,37.9359059 C118.1487,37.9811463 118.167244,38.0730414 118.122008,38.1411594 C118.076773,38.2092773 117.984889,38.2278233 117.916779,38.1825829 C117.468089,37.8845521 117.133645,37.4385757 116.969276,36.9194443 Z" id="Shape" fill="#757575"></path>
                    <path d="M116.909794,36.6917839 C116.847303,36.7445169 116.753901,36.736601 116.701174,36.6741033 C116.648447,36.6116055 116.656362,36.5181924 116.718853,36.4654594 C117.686644,35.6487825 118.393846,34.5373363 118.744361,33.2814447 C118.766343,33.2026829 118.848004,33.1566559 118.926757,33.1786406 C119.00551,33.2006253 119.051531,33.2822965 119.029549,33.3610583 C118.663173,34.6737807 117.923359,35.8364799 116.909794,36.6917839 Z" id="Shape" fill="#757575"></path>
                    <path d="M116.965568,33.6479919 C116.948661,33.5679867 116.999805,33.4894224 117.079801,33.4725137 C117.159797,33.455605 117.238352,33.5067548 117.255259,33.5867601 C117.258841,33.6037085 117.271083,33.6414039 117.295596,33.6928962 C117.338241,33.7824781 117.40038,33.8728212 117.485748,33.9577227 C117.71886,34.1895623 118.077571,34.3380203 118.596501,34.3577948 C118.678205,34.3609082 118.741915,34.4296738 118.738802,34.5113871 C118.735689,34.5931003 118.666932,34.6568181 118.585228,34.6537046 C117.993817,34.6311681 117.564201,34.4533651 117.276966,34.1676988 C117.086344,33.978117 116.994607,33.7854097 116.965568,33.6479919 Z" id="Shape" fill="#757575"></path>
                    <path d="M117.620154,33.0355812 C117.552241,32.9900455 117.534096,32.8980708 117.579627,32.8301499 C117.625157,32.762229 117.717121,32.7440822 117.785034,32.7896179 C117.780919,32.7868585 117.782837,32.7878064 117.791166,32.7905042 C117.969787,32.84836 118.293779,32.7488833 118.790281,32.3207421 C118.852205,32.2673443 118.945686,32.2742618 118.999078,32.3361926 C119.052469,32.3981235 119.045553,32.4916158 118.983629,32.5450135 C118.415403,33.0350031 117.989116,33.165888 117.699938,33.0722227 C117.664819,33.0608476 117.638262,33.0477226 117.620154,33.0355812 Z" id="Shape" fill="#757575"></path>
                    <path d="M117.215627,33.0440677 C117.205167,33.1251684 117.130951,33.1824334 117.04986,33.1719727 C116.968768,33.161512 116.91151,33.0872868 116.921969,33.0061861 C116.926854,32.9683122 116.93439,32.8963569 116.941988,32.7965415 C116.978211,32.3206668 116.971516,31.8046405 116.892531,31.3228048 C116.780236,30.6377669 116.536757,30.1379963 116.143914,29.8934596 C116.074498,29.8502499 116.05325,29.7589423 116.096455,29.6895185 C116.139659,29.6200947 116.230956,29.5988441 116.300372,29.6420539 C116.780965,29.9412127 117.059978,30.5139203 117.184721,31.2748964 C117.268104,31.7835608 117.275085,32.3216325 117.237224,32.8190201 C117.229216,32.92422 117.221146,33.0012724 117.215627,33.0440677 Z" id="Shape" fill="#757575"></path>
                    <path d="M115.619447,32.4694741 C115.599238,32.5487094 115.51863,32.5965577 115.439403,32.5763461 C115.360177,32.5561345 115.312335,32.4755168 115.332544,32.3962815 C115.336278,32.3816403 115.343149,32.3526842 115.352117,32.3113763 C115.367228,32.2417706 115.382376,32.1636918 115.396526,32.0791205 C115.441892,31.807969 115.466611,31.5352724 115.460001,31.283107 C115.450297,30.9129463 115.373078,30.6271531 115.223172,30.458317 C115.168883,30.3971719 115.174434,30.3035886 115.235572,30.2492929 C115.29671,30.1949972 115.390283,30.2005497 115.444572,30.2616948 C115.650517,30.4936463 115.744628,30.8419576 115.755989,31.2753458 C115.76316,31.5488769 115.736806,31.8396003 115.688556,32.1279913 C115.673592,32.2174299 115.657547,32.3001346 115.641465,32.3742087 C115.631717,32.4191087 115.624031,32.451502 115.619447,32.4694741 Z" id="Shape" fill="#757575"></path>
                    <path d="M115.497912,32.7953332 C115.534878,32.7223954 115.623966,32.6932381 115.696896,32.7302087 C115.769825,32.7671793 115.798979,32.8562776 115.762013,32.9292154 C115.740198,32.9722574 115.696334,33.0231202 115.624663,33.0686678 C115.270159,33.2939569 114.594797,33.1858845 113.484796,32.5619508 C113.413519,32.521886 113.388213,32.4316191 113.428273,32.3603341 C113.468333,32.289049 113.558589,32.26374 113.629866,32.3038048 C114.654859,32.8799548 115.225773,32.9713133 115.465865,32.8187334 C115.49029,32.8032113 115.499092,32.7930043 115.497912,32.7953332 Z" id="Shape" fill="#757575"></path>
                    <path d="M114.685817,34.9608867 C114.761533,34.9300244 114.847929,34.9663928 114.878788,35.0421177 C114.909647,35.1178427 114.873283,35.2042487 114.797566,35.235111 C114.09106,35.5230865 113.331961,35.5382703 112.618435,35.2785927 C112.541601,35.2506301 112.50198,35.1656683 112.52994,35.0888254 C112.557899,35.0119824 112.642851,34.9723571 112.719685,35.0003198 C113.364069,35.2348342 114.047252,35.2211689 114.685817,34.9608867 Z" id="Shape" fill="#757575"></path>
                    <path d="M114.881727,34.5526101 C114.88616,34.5460895 114.889737,34.5365119 114.889737,34.5057497 C114.889737,34.5875222 114.823455,34.653812 114.741692,34.653812 C114.659929,34.653812 114.593647,34.5875222 114.593647,34.5057497 C114.593647,34.4313928 114.612238,34.4065499 114.705723,34.3036308 C114.708822,34.30022 114.763309,34.2408109 114.780696,34.2214834 C114.811368,34.1873861 114.837529,34.157057 114.86223,34.1265739 C115.132109,33.7935189 115.156806,33.5346487 114.810801,33.255198 C114.767321,33.2200813 114.718092,33.1851564 114.662935,33.1505 C114.593702,33.1069989 114.572837,33.0156029 114.616333,32.9463613 C114.659829,32.8771196 114.751215,32.8562528 114.820448,32.8997538 C114.885254,32.9404726 114.943998,32.9821478 114.996827,33.0248151 C115.494996,33.4271612 115.452948,33.867903 115.092266,34.3130177 C115.064001,34.3478987 115.034642,34.3819353 115.000814,34.4195401 C114.982274,34.4401496 114.927102,34.5003055 114.924883,34.5027484 C114.905752,34.5238091 114.893014,34.5384288 114.884689,34.5489069 L114.881727,34.5526101 Z" id="Shape" fill="#757575"></path>
                    <path d="M106.018937,90.7362589 C105.873721,90.6610633 105.816951,90.4823707 105.892138,90.3371377 C105.967325,90.1919047 106.145997,90.1351282 106.291213,90.2103238 C106.512243,90.324777 106.823606,90.5673261 107.130068,90.9661362 C108.224702,92.3906208 108.311564,94.6005944 106.794947,97.7101059 C106.723255,97.8570958 106.545992,97.91813 106.399019,97.8464295 C106.252046,97.7747291 106.191019,97.5974455 106.262711,97.4504556 C107.686297,94.5316854 107.608844,92.5610999 106.660533,91.3270303 C106.5145,91.1369929 106.35883,90.9832016 106.204451,90.8629414 C106.115349,90.7935325 106.049687,90.7521815 106.018937,90.7362589 Z" id="Shape" fill="#757575"></path>
                    <path d="M107.905391,93.6088175 C107.972676,93.7578769 107.906398,93.9332648 107.757356,94.0005574 C107.608314,94.0678499 107.432946,94.0015648 107.365662,93.8525054 C107.080997,93.2218727 106.499769,92.7374596 105.778979,92.5351479 C105.621536,92.4909567 105.529723,92.3274848 105.573909,92.1700233 C105.618095,92.0125618 105.781548,91.9207381 105.938991,91.9649294 C106.825295,92.2136978 107.547241,92.8153889 107.905391,93.6088175 Z" id="Shape" fill="#757575"></path>
                    <path d="M107.633427,95.7683338 C107.652865,95.9307193 107.536998,96.0781182 107.374632,96.0975585 C107.212265,96.1169987 107.064883,96.0011186 107.045445,95.838733 C106.911137,94.7167141 106.036035,93.8415111 104.940499,93.7291156 C104.777827,93.7124264 104.659482,93.5670097 104.67617,93.4043184 C104.692857,93.2416271 104.838257,93.123269 105.000929,93.1399582 C106.374067,93.2808341 107.466442,94.3733358 107.633427,95.7683338 Z" id="Shape" fill="#757575"></path>
                    <path d="M107.036972,96.9269214 C107.070719,97.0869461 106.968365,97.2440317 106.808359,97.277782 C106.648353,97.3115323 106.491285,97.2091666 106.457539,97.0491419 C106.448332,97.0054831 106.425307,96.9205022 106.385992,96.8085077 C106.319832,96.6200351 106.232587,96.431667 106.122791,96.2577575 C105.658684,95.5226494 104.973222,95.267185 103.908018,95.747341 C103.758935,95.8145424 103.583608,95.7481501 103.516414,95.5990496 C103.449221,95.449949 103.515605,95.2746017 103.664689,95.2074003 C105.015009,94.5987239 106.009784,94.969466 106.623509,95.9415584 C106.759093,96.1563124 106.864719,96.3843694 106.944739,96.612322 C106.993133,96.7501826 107.022762,96.8595335 107.036972,96.9269214 Z" id="Shape" fill="#757575"></path>
                    <path d="M107.686549,94.0223562 C107.525469,94.0505387 107.372045,93.9427889 107.343865,93.7816904 C107.315686,93.6205918 107.423423,93.4671492 107.584503,93.4389668 C107.602924,93.4357438 107.648707,93.4234563 107.712302,93.3984656 C107.823257,93.3548648 107.934863,93.2915437 108.038755,93.2054199 C108.344155,92.9522543 108.527728,92.5557303 108.523736,91.9558852 C108.522647,91.7923438 108.654326,91.6588847 108.817848,91.6577961 C108.981371,91.6567075 109.114814,91.7884016 109.115903,91.951943 C109.121075,92.7289598 108.859254,93.2945006 108.416658,93.6613975 C108.149529,93.8828385 107.881115,93.988315 107.686549,94.0223562 Z" id="Shape" fill="#757575"></path>
                    <path d="M107.272404,95.7464784 C107.113124,95.7094533 107.014013,95.5503013 107.051033,95.3910024 C107.088054,95.2317035 107.247188,95.132581 107.406468,95.1696061 C107.424378,95.1737694 107.464649,95.181334 107.52327,95.1892915 C107.846189,95.2331258 108.201601,95.2185842 108.527329,95.1067194 C108.939762,94.9650776 109.24939,94.6838116 109.432348,94.2152018 C109.491827,94.0628587 109.663529,93.9875831 109.815854,94.047069 C109.96818,94.106555 110.043447,94.2782763 109.983967,94.4306194 C109.735441,95.0671685 109.291447,95.470493 108.719655,95.6668634 C108.293515,95.8132126 107.850205,95.8313504 107.443625,95.7761596 C107.365869,95.7656046 107.307587,95.7546568 107.272404,95.7464784 Z" id="Shape" fill="#757575"></path>
                    <path d="M106.734069,97.573659 C106.570705,97.5663754 106.444176,97.428023 106.451459,97.2646402 C106.458742,97.1012574 106.597078,96.9747139 106.760442,96.9819975 C106.776329,96.9827058 106.807866,96.9838248 106.852991,96.9849616 C107.226799,96.9943787 107.654055,96.9851381 108.055378,96.9432043 C108.684186,96.877501 109.092492,96.731443 109.127583,96.6098118 C109.172918,96.4526772 109.337037,96.3620497 109.494153,96.4073897 C109.65127,96.4527297 109.741887,96.6168678 109.696552,96.7740024 C109.562435,97.2388643 109.000326,97.4399406 108.116912,97.5322474 C107.685932,97.57728 107.235221,97.5870278 106.838079,97.5770229 C106.789009,97.5757867 106.753665,97.5745327 106.734069,97.573659 Z" id="Shape" fill="#757575"></path>
                    <path d="M106.529609,95.7698663 C106.598951,95.8131945 106.620043,95.9045382 106.57672,95.9738882 C106.533397,96.0432381 106.442064,96.0643329 106.372722,96.0210047 C106.36428,96.0157296 106.339071,96.0037141 106.297792,95.9903688 C105.934,95.8727572 105.422689,95.9793419 104.767607,96.5081402 C104.703983,96.5594993 104.610775,96.5495503 104.559422,96.4859186 C104.508069,96.4222869 104.518017,96.3290685 104.581641,96.2777094 C105.312643,95.687627 105.927526,95.5594522 106.388865,95.7086001 C106.454186,95.7297182 106.501281,95.7521659 106.529609,95.7698663 Z" id="Shape" fill="#757575"></path>
                    <path d="M106.300477,95.4795536 C106.315859,95.559866 106.26323,95.6374433 106.182927,95.6528273 C106.102624,95.6682113 106.025056,95.6155765 106.009674,95.5352641 C105.858687,94.7469455 105.174771,94.1769496 104.378143,94.1748478 C104.296381,94.1746321 104.230274,94.1081677 104.230489,94.0263954 C104.230705,93.9446232 104.297162,93.8785085 104.378924,93.8787243 C105.317635,93.881201 106.122884,94.5523193 106.300477,95.4795536 Z" id="Shape" fill="#757575"></path>
                    <path d="M107.701581,97.1205391 C107.628407,97.1570242 107.539515,97.1272756 107.503034,97.0540938 C107.466553,96.9809119 107.496298,96.8920093 107.569472,96.8555241 C107.582532,96.8490123 107.607851,96.8360499 107.643664,96.8171677 C107.703813,96.7854551 107.770953,96.7488743 107.843313,96.707962 C108.049974,96.5911164 108.25657,96.4632698 108.448781,96.3289206 C108.787013,96.0925073 109.042424,95.8622233 109.178737,95.6551605 C109.222947,95.5880049 109.253301,95.5250563 109.269561,95.4672886 C109.291716,95.3885753 109.373479,95.342728 109.452183,95.3648858 C109.530887,95.3870436 109.576729,95.4688158 109.554574,95.5475291 C109.529428,95.6368696 109.486016,95.7268952 109.426039,95.818002 C109.264562,96.0632881 108.984753,96.3155706 108.618396,96.5716423 C108.417705,96.7119188 108.203334,96.8445769 107.989029,96.9657445 C107.914051,97.0081368 107.844376,97.0460989 107.781743,97.0791211 C107.743887,97.0990799 107.716585,97.1130577 107.701581,97.1205391 Z" id="Shape" fill="#757575"></path>
                    <path d="M107.49473,97.3299202 C107.469459,97.2521517 107.512008,97.1686187 107.589768,97.1433439 C107.667527,97.1180692 107.75105,97.1606237 107.776322,97.2383922 C107.781211,97.2534355 107.792174,97.2828742 107.809092,97.3217073 C107.837538,97.3870014 107.871736,97.4522359 107.911178,97.5122636 C107.986093,97.6262774 108.069649,97.7054335 108.155617,97.737878 C108.232115,97.7667484 108.270727,97.8521732 108.24186,97.9286798 C108.212993,98.0051863 108.127578,98.043803 108.05108,98.0149326 C107.896853,97.9567268 107.769892,97.836452 107.663734,97.6748887 C107.579015,97.5459542 107.523596,97.4187467 107.49473,97.3299202 Z" id="Shape" fill="#757575"></path>
                    <path d="M108.08519,95.5474918 C108.063055,95.4687728 108.108918,95.3870126 108.187628,95.3648754 C108.266338,95.3427381 108.348089,95.3886068 108.370224,95.4673258 C108.464069,95.8010738 108.654551,96.0868297 108.908672,96.277301 C108.9741,96.3263411 108.987389,96.419142 108.938355,96.4845776 C108.889321,96.5500131 108.79653,96.5633042 108.731102,96.514264 C108.42379,96.2839246 108.196304,95.9426563 108.08519,95.5474918 Z" id="Shape" fill="#757575"></path>
                    <path d="M108.020751,95.6256272 C107.955469,95.6748607 107.86264,95.6618441 107.813412,95.5965539 C107.764184,95.5312637 107.777199,95.4384239 107.842482,95.3891904 C108.524594,94.8747696 109.02282,94.1771726 109.270869,93.3900312 C109.295446,93.3120403 109.378586,93.2687421 109.456568,93.2933219 C109.53455,93.3179017 109.577843,93.4010518 109.553266,93.4790427 C109.286528,94.3254921 108.751641,95.0744209 108.020751,95.6256272 Z" id="Shape" fill="#757575"></path>
                    <path d="M108.082186,93.4617611 C108.067152,93.3813827 108.120117,93.3040345 108.200486,93.288999 C108.280855,93.2739635 108.358194,93.3269344 108.373228,93.4073128 C108.382488,93.4568232 108.419469,93.5436051 108.499525,93.6321296 C108.628477,93.7747231 108.827705,93.8662584 109.122303,93.878859 C109.203992,93.882353 109.267381,93.9514146 109.263887,94.0331125 C109.260394,94.1148103 109.19134,94.1782071 109.109652,94.1747131 C108.736726,94.1587622 108.462685,94.0328542 108.279928,93.8307646 C108.158604,93.6966065 108.100692,93.5607057 108.082186,93.4617611 Z" id="Shape" fill="#757575"></path>
                    <path d="M108.448774,93.2897451 C108.378287,93.2483062 108.354735,93.1575657 108.396169,93.0870706 C108.437603,93.0165754 108.528333,92.9930207 108.59882,93.0344596 C108.593202,93.0311569 108.591934,93.0306082 108.595381,93.0315838 C108.719625,93.06675 108.954917,93.002455 109.32276,92.7241997 C109.387971,92.6748709 109.480819,92.6877519 109.530142,92.7529702 C109.579465,92.8181885 109.566586,92.9110472 109.501375,92.9603759 C109.065222,93.2903044 108.738025,93.3797128 108.514752,93.3165175 C108.486538,93.3085318 108.464554,93.2990219 108.448774,93.2897451 Z" id="Shape" fill="#757575"></path>
                    <path d="M108.348306,93.1577019 C108.337654,93.2387775 108.263301,93.2958661 108.182235,93.2852127 C108.101169,93.2745594 108.044087,93.2001984 108.054739,93.1191228 C108.057682,93.0967269 108.062313,93.0532596 108.06701,92.9925268 C108.090148,92.6933463 108.085064,92.3677638 108.032502,92.0648661 C107.959376,91.6434565 107.804377,91.3392379 107.55947,91.1925699 C107.489321,91.15056 107.466507,91.0596313 107.508512,90.9894749 C107.550517,90.9193185 107.641435,90.8965012 107.711583,90.938511 C108.045257,91.1383393 108.237826,91.5162961 108.324232,92.0142309 C108.38165,92.3451159 108.387094,92.6937208 108.362219,93.0153625 C108.357097,93.0815956 108.351909,93.130274 108.348306,93.1577019 Z" id="Shape" fill="#757575"></path>
                    <path d="M107.276141,92.8767951 C107.257086,92.9563158 107.177181,93.0053307 107.09767,92.9862728 C107.018158,92.967215 106.969149,92.8873013 106.988205,92.8077805 C106.998705,92.7639628 107.014971,92.6843096 107.031345,92.5804317 C107.06139,92.3898271 107.078051,92.1984483 107.074482,92.0219492 C107.069277,91.7645434 107.020646,91.5672438 106.928967,91.4556702 C106.877056,91.3924934 106.886182,91.2991909 106.949352,91.2472733 C107.012521,91.1953557 107.105813,91.204483 107.157724,91.2676598 C107.300934,91.4419467 107.364086,91.698158 107.370512,92.0159621 C107.374477,92.2120853 107.356372,92.4200555 107.323823,92.6265448 C107.306139,92.7387372 107.288347,92.8258601 107.276141,92.8767951 Z" id="Shape" fill="#757575"></path>
                    <path d="M106.904447,93.1345576 C106.93274,93.0578368 107.017863,93.0185809 107.094575,93.046877 C107.171286,93.0751732 107.210538,93.1603062 107.182245,93.237027 C107.168426,93.2744995 107.140519,93.3190238 107.092787,93.3607917 C106.854917,93.5689413 106.427713,93.4732004 105.76799,92.9590801 C105.703495,92.9088192 105.691951,92.815785 105.742206,92.7512824 C105.792461,92.6867797 105.885485,92.6752345 105.94998,92.7254955 C106.273764,92.9778199 106.522968,93.1126137 106.702286,93.1528008 C106.810195,93.1769842 106.867393,93.1645528 106.897816,93.1379302 C106.904569,93.1320216 106.906544,93.1288694 106.904447,93.1345576 Z" id="Shape" fill="#757575"></path>
                    <path d="M106.69757,94.1834358 C106.774591,94.1559921 106.859274,94.1961895 106.886714,94.2732193 C106.914155,94.3502491 106.873962,94.4349416 106.796941,94.4623854 C106.282155,94.6458119 105.731906,94.6458119 105.217119,94.4623854 C105.140098,94.4349416 105.099905,94.3502491 105.127346,94.2732193 C105.154786,94.1961895 105.239469,94.1559921 105.31649,94.1834358 C105.767008,94.3439623 106.247052,94.3439623 106.69757,94.1834358 Z" id="Shape" fill="#757575"></path>
                    <path d="M106.599211,94.026786 C106.599211,94.1085586 106.532928,94.1748483 106.451165,94.1748483 C106.369402,94.1748483 106.30312,94.1085586 106.30312,94.026786 C106.30312,93.9748759 106.320512,93.9441709 106.350907,93.9077927 C106.362744,93.8936248 106.376148,93.8797894 106.396441,93.860039 C106.420397,93.8369502 106.435115,93.8227948 106.445827,93.8122999 C106.465447,93.7930762 106.481941,93.7762166 106.497391,93.7593852 C106.672938,93.5681453 106.672938,93.4458431 106.374472,93.2650583 C106.304535,93.2226968 106.282178,93.1316547 106.324534,93.06171 C106.366891,92.9917654 106.457922,92.9694049 106.527859,93.0117664 C107.005808,93.3012667 107.005808,93.6433926 106.715505,93.9596471 C106.696105,93.9807814 106.676108,94.0012222 106.653034,94.0238299 C106.641107,94.0355157 106.625086,94.0509239 106.602942,94.0722581 C106.589538,94.0853039 106.58162,94.0934776 106.578113,94.0976742 C106.590658,94.0826596 106.599211,94.0675607 106.599211,94.026786 Z" id="Shape" fill="#757575"></path>
                    <path d="M5.34099466,75.9261393 C5.19792758,75.8469304 5.14615288,75.6667266 5.22535263,75.5236429 C5.30455238,75.3805592 5.48473525,75.3287785 5.62780233,75.4079875 C5.92286208,75.571347 6.34487451,75.9229805 6.76119862,76.5026671 C8.25875027,78.587847 8.37688948,81.835692 6.27261874,86.4504191 C6.20476652,86.5992209 6.02914766,86.6648372 5.88036302,86.5969772 C5.73157839,86.5291171 5.6659697,86.3534778 5.73382192,86.204676 C7.75504492,81.772075 7.64506566,78.7485605 6.28022995,76.8481733 C6.06864882,76.5535693 5.84296413,76.3150442 5.61872166,76.1281986 C5.48794406,76.0192308 5.39002176,75.9532831 5.34099466,75.9261393 Z" id="Shape" fill="#757575"></path>
                    <path d="M7.82986547,80.5861447 C7.89339087,80.736845 7.8227358,80.9105152 7.67205297,80.9740479 C7.52137014,81.0375807 7.34772007,80.9669174 7.28419468,80.8162171 C6.83796733,79.7576389 5.92931564,78.9498549 4.80775413,78.6160047 C4.6510227,78.5693511 4.56178255,78.4044603 4.60843068,78.2477107 C4.65507881,78.0909611 4.81995052,78.0017106 4.97668196,78.0483641 C6.26716863,78.4324975 7.31451048,79.363576 7.82986547,80.5861447 Z" id="Shape" fill="#757575"></path>
                    <path d="M7.55650511,83.6448006 C7.56623848,83.8080557 7.44179987,83.9482915 7.27856368,83.958026 C7.1153275,83.9677605 6.97510797,83.8433075 6.96537459,83.6800524 C6.96417747,83.6599733 6.95961749,83.615079 6.94973922,83.5490102 C6.93266614,83.4348205 6.90638879,83.3065347 6.86901364,83.1677865 C6.76180054,82.7697783 6.58773335,82.3716162 6.33248097,82.0010842 C5.77440844,81.1909695 4.90899813,80.6227639 3.65614345,80.4005048 C3.49513079,80.3719408 3.38775724,80.2182434 3.41631792,80.0572121 C3.44487861,79.8961807 3.59855817,79.7887947 3.75957084,79.8173587 C5.1704104,80.0676447 6.17329804,80.7261143 6.82012971,81.6650744 C7.11621578,82.0948818 7.31703048,82.5542263 7.44080736,83.0137244 C7.51570715,83.2917757 7.54855659,83.5114824 7.55650511,83.6448006 Z" id="Shape" fill="#757575"></path>
                    <path d="M6.66243836,85.3783125 C6.69604723,85.5383662 6.59355851,85.6953639 6.43352341,85.7289766 C6.2734883,85.7625894 6.11650885,85.6600888 6.08289998,85.5000351 C6.07963658,85.484494 6.07163484,85.4508363 6.05839745,85.4017104 C6.03565347,85.317304 6.00666987,85.2226039 5.97098159,85.1202736 C5.86889776,84.8275647 5.7343711,84.5349703 5.56454187,84.263806 C4.83121318,83.0929089 3.72676881,82.6844812 2.05605844,83.4606795 C1.90775307,83.529581 1.73167863,83.4651974 1.66278517,83.3168749 C1.59389171,83.1685523 1.65826777,82.9924575 1.80657314,82.923556 C3.76441776,82.0139575 5.18271427,82.5384489 6.06640084,83.9494206 C6.26169946,84.2612516 6.41436366,84.5932949 6.53012566,84.9252238 C6.59995292,85.1254422 6.6424807,85.2832693 6.66243836,85.3783125 Z" id="Shape" fill="#757575"></path>
                    <path d="M7.60852622,80.6966679 C7.44749229,80.7251117 7.29389289,80.617611 7.26545235,80.4565584 C7.23701182,80.2955058 7.3445,80.1418886 7.50553393,80.1134448 C7.54234809,80.1069422 7.62040708,80.0858067 7.72554579,80.0441432 C7.90582602,79.9727033 8.08678671,79.8691969 8.25546439,79.7282584 C8.74480538,79.3193899 9.03952989,78.6824885 9.03747082,77.7405827 C9.0371133,77.577038 9.16938726,77.444169 9.33291299,77.4438114 C9.49643871,77.4434539 9.62929233,77.5757432 9.62964985,77.7392879 C9.63209224,78.8565375 9.25997887,79.6606767 8.63513712,80.1827628 C8.256958,80.4987501 7.8773184,80.6491904 7.60852622,80.6966679 Z" id="Shape" fill="#757575"></path>
                    <path d="M7.19365772,83.5799168 C7.03440947,83.5427536 6.93543648,83.3835156 6.97259537,83.2242489 C7.00975427,83.0649822 7.16897372,82.9659977 7.32822198,83.0031609 C7.35960916,83.0104856 7.42489535,83.0228004 7.5181096,83.03551 C8.02300244,83.1043512 8.57732467,83.0820827 9.09023636,82.9065149 C9.74946306,82.680864 10.2477126,82.2282718 10.5380972,81.4821428 C10.5974122,81.3297357 10.7690325,81.2542753 10.9214219,81.3135972 C11.0738113,81.3729191 11.1492629,81.5445593 11.0899479,81.6969664 C10.7340137,82.6115217 10.101032,83.1864999 9.2819938,83.4668537 C8.66873077,83.6767714 8.02658848,83.7025679 7.43811619,83.6223308 C7.32570876,83.6070042 7.24236246,83.5912828 7.19365772,83.5799168 Z" id="Shape" fill="#757575"></path>
                    <path d="M6.35844402,86.0205448 C6.19510673,86.0126875 6.06906452,85.8738916 6.07692086,85.7105354 C6.08477719,85.5471792 6.22355704,85.4211223 6.38689433,85.4289796 C6.412286,85.430201 6.46174385,85.4320983 6.53198409,85.434016 C7.07584469,85.4488645 7.69308382,85.4359586 8.27379514,85.3744879 C9.24670917,85.2715009 9.8676279,85.0408714 9.93472758,84.7745653 C9.97468596,84.6159779 10.1356242,84.5198139 10.2941931,84.5597769 C10.4527621,84.5997399 10.548915,84.7606968 10.5089566,84.9192841 C10.3521601,85.5415805 9.56722808,85.8331299 8.33612447,85.9634473 C7.72500312,86.028137 7.08364519,86.0415473 6.51582423,86.0260446 C6.44134738,86.0240112 6.38780927,86.0219574 6.35844402,86.0205448 Z" id="Shape" fill="#757575"></path>
                    <path d="M5.86014939,83.9720216 C5.92906677,84.0160221 5.94927004,84.1075666 5.90527467,84.176492 C5.8612793,84.2454173 5.76974543,84.2656229 5.70082806,84.2216225 C5.68384792,84.2107815 5.64159518,84.1902635 5.57489284,84.1683603 C5.01239261,83.9836514 4.22072188,84.1497637 3.20834279,84.9623952 C3.14457758,85.0135792 3.05139764,85.0033742 3.00021956,84.9396016 C2.94904149,84.875829 2.95924538,84.7826382 3.02301059,84.7314542 C4.1112373,83.8579402 5.00659825,83.670071 5.66725791,83.8870127 C5.75846103,83.9169612 5.82298649,83.9482949 5.86014939,83.9720216 Z" id="Shape" fill="#757575"></path>
                    <path d="M5.03784453,83.0435231 C5.05256354,83.1239597 4.99929646,83.2011 4.91886918,83.2158207 C4.83844189,83.2305414 4.76131058,83.1772682 4.74659156,83.0968316 C4.53988514,81.9672203 3.60769914,81.151463 2.52266438,81.1453654 C2.44090261,81.1449059 2.37499404,81.0782447 2.37545346,80.9964735 C2.37591289,80.9147022 2.44256633,80.848786 2.5243281,80.8492455 C3.75439796,80.8561581 4.8059738,81.7763937 5.03784453,83.0435231 Z" id="Shape" fill="#757575"></path>
                    <path d="M7.9234344,85.865595 C7.85148189,85.904433 7.76167216,85.8775815 7.72283875,85.8056206 C7.68400534,85.7336598 7.71085369,85.6438396 7.7828062,85.6050017 C7.8029235,85.594143 7.84148295,85.5727826 7.89583766,85.5417909 C7.98689456,85.4898724 8.0884762,85.4300524 8.19793019,85.3632073 C8.5105964,85.1722575 8.82320541,84.9636006 9.11439109,84.7444539 C9.61271972,84.3694112 9.99443573,84.0037264 10.2113481,83.6682722 C10.2895042,83.5474042 10.3446284,83.432628 10.3757196,83.3251523 C10.3984433,83.2466013 10.4805353,83.2013464 10.5590772,83.2240727 C10.6376191,83.246799 10.6828687,83.3289005 10.660145,83.4074516 C10.6203993,83.5448444 10.5529227,83.6853396 10.4599775,83.829079 C10.2203077,84.1997275 9.81614676,84.5869146 9.29242563,84.9810677 C8.99286029,85.2065209 8.67252177,85.420337 8.35224045,85.6159375 C8.24016281,85.684385 8.1360365,85.7457035 8.0424837,85.799045 C7.9860726,85.8312093 7.9455136,85.8536773 7.9234344,85.865595 Z" id="Shape" fill="#757575"></path>
                    <path d="M7.71031968,85.7743585 C7.68874988,85.6954827 7.73519812,85.6140535 7.81406472,85.5924812 C7.89293133,85.5709089 7.97435112,85.6173625 7.99592092,85.6962383 C8.00282661,85.7214908 8.01759326,85.7684792 8.04017964,85.829746 C8.07795923,85.9322253 8.12349583,86.0345989 8.17636968,86.1291792 C8.27636767,86.3080547 8.3895747,86.4348517 8.50736486,86.4892489 C8.58159613,86.5235299 8.61398541,86.6115035 8.57970835,86.6857434 C8.54543128,86.7599832 8.4574679,86.7923763 8.38323664,86.7580952 C8.19766015,86.6723934 8.0456221,86.5021039 7.91793024,86.2736898 C7.85679721,86.1643355 7.80514264,86.0482078 7.76237044,85.9321858 C7.73662574,85.8623518 7.71934801,85.807373 7.71031968,85.7743585 Z" id="Shape" fill="#757575"></path>
                    <path d="M8.30412328,83.4108748 C8.27950924,83.3328955 8.32276292,83.249725 8.40073308,83.2251081 C8.47870325,83.2004912 8.56186418,83.2437499 8.58647822,83.3217291 C8.7299342,83.7762088 9.02267926,84.1665808 9.41547145,84.4274581 C9.4835835,84.4726954 9.50213134,84.5645897 9.45689921,84.6327097 C9.41166708,84.7008296 9.31978347,84.7193796 9.25167141,84.6741422 C8.80238015,84.3757405 8.46789077,83.9297029 8.30412328,83.4108748 Z" id="Shape" fill="#757575"></path>
                    <path d="M8.24493823,83.1831221 C8.1825678,83.2359972 8.08914781,83.2282938 8.03627886,83.1659162 C7.98340991,83.1035385 7.99111238,83.0101077 8.05348282,82.9572326 C9.01893023,82.1387661 9.72578767,81.0278613 10.0793433,79.7726599 C10.1015134,79.6939508 10.1832848,79.6481191 10.2619848,79.6702918 C10.3406847,79.6924646 10.3865111,79.7742454 10.364341,79.8529545 C9.99491747,81.1644906 9.25571756,82.3262251 8.24493823,83.1831221 Z" id="Shape" fill="#757575"></path>
                    <path d="M8.30045518,80.1395477 C8.28354844,80.0595424 8.33469239,79.9809781 8.41468839,79.9640694 C8.49468439,79.9471607 8.57323958,79.9983106 8.59014632,80.0783159 C8.59372785,80.0952642 8.6059703,80.1329596 8.63048288,80.184452 C8.67312772,80.2740339 8.73526761,80.3643769 8.8206351,80.4492784 C9.05374721,80.6811181 9.41245836,80.829576 9.93138858,80.8493505 C10.0130924,80.852464 10.0768027,80.9212296 10.0736896,81.0029428 C10.0705766,81.084656 10.0018189,81.1483738 9.92011518,81.1452604 C9.32870406,81.1227239 8.89908788,80.9449208 8.61185365,80.6592545 C8.42123131,80.4696727 8.32949435,80.2769654 8.30045518,80.1395477 Z" id="Shape" fill="#757575"></path>
                    <path d="M8.9564796,79.5340119 C8.88804063,79.4892708 8.86882554,79.3975137 8.91356149,79.3290668 C8.95829744,79.2606199 9.05004384,79.2414026 9.11848281,79.2861437 C9.11423804,79.2833688 9.11586167,79.2841513 9.12372756,79.2866367 C9.30202252,79.342972 9.62689014,79.2419707 10.1251682,78.8122978 C10.1870918,78.7589001 10.2805733,78.7658175 10.3339648,78.8277484 C10.3873564,78.8896792 10.3804397,78.9831715 10.3185161,79.0365692 C9.7490565,79.5276231 9.32289199,79.6601176 9.03452936,79.5690045 C9.00027977,79.5581828 8.97429464,79.5456583 8.9564796,79.5340119 Z" id="Shape" fill="#757575"></path>
                    <path d="M8.55051776,79.8317196 C8.54007394,79.9128223 8.46586845,79.9701017 8.38477514,79.9596567 C8.30368183,79.9492116 8.2464091,79.8749975 8.25685291,79.7938948 C8.26173855,79.7559549 8.26927538,79.6838884 8.27687396,79.5839331 C8.31301814,79.1084757 8.30643216,78.5930103 8.2278873,78.1117084 C8.11583341,77.4250721 7.87229039,76.9247843 7.47909964,76.6813254 C7.40958148,76.6382806 7.38811653,76.5470238 7.43115632,76.4774976 C7.47419611,76.4079714 7.56544236,76.3865039 7.63496051,76.4295487 C8.11645151,76.727682 8.39561774,77.3011473 8.52011098,78.0640086 C8.60301947,78.5720497 8.60988616,79.109485 8.57211213,79.6063822 C8.56410493,79.7117127 8.55603598,79.7888672 8.55051776,79.8317196 Z" id="Shape" fill="#757575"></path>
                    <path d="M6.65218453,78.9615659 C6.63167924,79.0407252 6.55089262,79.0882717 6.47174257,79.067764 C6.39259252,79.0472563 6.34505154,78.9664604 6.36555683,78.8873011 C6.36939958,78.8724664 6.37646758,78.8431484 6.38569227,78.8013474 C6.40123477,78.7309177 6.4168142,78.6519577 6.43136644,78.5664864 C6.47734354,78.2964438 6.50272048,78.0251169 6.49689694,77.7742183 C6.48830845,77.4041957 6.41174905,77.1185669 6.26196903,76.9498727 C6.2076796,76.8887276 6.21323146,76.7951444 6.27436946,76.7408486 C6.33550746,76.6865529 6.42907988,76.6921054 6.48336931,76.7532505 C6.68944018,76.9853439 6.78284497,77.3338197 6.79290743,77.7673461 C6.79922636,78.0395883 6.77216448,78.3289306 6.72325528,78.6161946 C6.70786493,78.7065884 6.69136303,78.7902237 6.6748242,78.8651682 C6.66480008,78.9105917 6.6568968,78.9433746 6.65218453,78.9615659 Z" id="Shape" fill="#757575"></path>
                    <path d="M6.83362927,79.5847073 C6.87148627,79.5122279 6.96092478,79.4841645 7.03339578,79.5220259 C7.10586678,79.5598873 7.13392697,79.6493361 7.09606997,79.7218155 C7.0739552,79.7641555 7.02994176,79.8140466 6.9585092,79.8586378 C6.60275748,80.0807127 5.92751152,79.9718168 4.81972935,79.3496573 C4.74843808,79.3096183 4.72309939,79.2193605 4.76313379,79.148061 C4.80316819,79.0767615 4.89341548,79.0514198 4.96470674,79.0914589 C5.98813818,79.6662448 6.55982405,79.7584397 6.80173183,79.6074309 C6.82614307,79.5921924 6.8349108,79.5822538 6.83362927,79.5847073 Z" id="Shape" fill="#757575"></path>
                    <path d="M6.02131502,81.4521951 C6.09716778,81.4216701 6.18340109,81.4584227 6.21392251,81.5342842 C6.24444393,81.6101458 6.20769563,81.6963891 6.13184287,81.7269141 C5.42473375,82.0114717 4.66625687,82.0244756 3.95318681,81.7641766 C3.87638006,81.736139 3.83684216,81.6511387 3.86487645,81.5743231 C3.89291073,81.4975074 3.97790118,81.4579649 4.05470793,81.4860025 C4.69900853,81.7211979 5.38195476,81.7094889 6.02131502,81.4521951 Z" id="Shape" fill="#757575"></path>
                    <path d="M6.21712404,81.0425089 C6.22111714,81.0364591 6.22462406,81.0268282 6.22462406,80.9973054 C6.22462406,81.079078 6.15834201,81.1453677 6.07657895,81.1453677 C5.99481589,81.1453677 5.92853383,81.079078 5.92853383,80.9973054 C5.92853383,80.9228149 5.94922721,80.8947835 6.04039688,80.7939796 C6.04742484,80.7862089 6.09923253,80.7296202 6.11558184,80.7114452 C6.14646592,80.6771123 6.17255451,80.6469052 6.19721567,80.6165365 C6.47569402,80.273607 6.49445524,80.0099223 6.11086944,79.7199054 C6.07632228,79.6937854 6.03858426,79.6677757 5.99758471,79.6419061 C5.92843375,79.5982737 5.90774275,79.5068382 5.95137006,79.4376792 C5.99499738,79.3685203 6.08642223,79.3478269 6.15557319,79.3914592 C6.20349198,79.4216947 6.24808938,79.452432 6.28942627,79.4836855 C6.83106653,79.8932023 6.79889834,80.3453188 6.42705467,80.8032221 C6.39888244,80.8379146 6.36967033,80.8717383 6.3357019,80.9094999 C6.31827204,80.9288761 6.26609981,80.9858631 6.25998365,80.9926255 C6.24093358,81.0136887 6.22816943,81.0284542 6.21989446,81.0390128 L6.21712404,81.0425089 Z" id="Shape" fill="#757575"></path>
                </g>
            </g>
        </g>
    </g>
</svg>