<?xml version="1.0" encoding="UTF-8"?>
<svg width="23px" height="23px" viewBox="0 0 23 23" version="1.1" xmlns="http://www.w3.org/2000/svg" xmlns:xlink="http://www.w3.org/1999/xlink">
    <!-- Generator: Sketch 50.2 (55047) - http://www.bohemiancoding.com/sketch -->
    <title>personal_sex_slice</title>
    <desc>Created with Sketch.</desc>
    <defs></defs>
    <g id="Page-1" stroke="none" stroke-width="1" fill="none" fill-rule="evenodd">
        <g id="Artboard" transform="translate(-16.000000, -307.000000)">
            <g id="personal_sex" transform="translate(16.000000, 307.000000)">
                <path d="M7.10582926,15.8021892 L7.10382253,13.8692733 L7.10382253,13.6489607 C9.59583464,13.269819 11.4979497,11.2705804 11.4959429,8.85517337 C11.4934652,6.17170464 9.1420267,3.99709139 6.24344674,4.00000292 C3.34544013,4.00197071 0.997974104,6.17953565 1.00000131,8.8639682 C1.00200804,11.2783511 2.90807511,13.2746782 5.40053771,13.6509486 L5.40053771,13.8702974 L5.40254444,15.8032133 L2.81461876,15.8051811 C2.34391742,15.8061449 1.96323231,16.1589824 1.96372376,16.5946882 C1.96372376,17.0304341 2.34541223,17.3832114 2.81558118,17.3832114 L5.40403925,17.3812436 L5.40604598,20.1797279 C5.40651695,20.6154738 5.78826685,20.9682712 6.2584358,20.9682712 C6.72858426,20.9673073 7.10984272,20.6144096 7.10935128,20.1787239 L7.10687358,17.3792356 L9.62869998,17.3772678 C10.0994013,17.3772678 10.4800864,17.0234665 10.479595,16.5877607 C10.479595,16.1530389 10.0979065,15.8001813 9.62771709,15.8001813 L7.10582926,15.8021892 Z M16.954641,6.70881202 L18.5470642,8.20796991 C18.7140734,8.36493161 18.9347319,8.44384417 19.1554314,8.44384417 C19.3701311,8.44384417 19.5858957,8.3687668 19.7518401,8.21674467 C20.0868209,7.91167635 20.0918377,7.4125996 19.7608089,7.10162789 L17.2807144,4.7671615 C17.139547,4.59654572 16.8155213,4.28563425 16.2926449,4.22909029 C15.9725304,4.19300738 15.4775639,4.25151913 14.971581,4.72037619 C14.3194957,5.32667764 12.4417481,7.10945891 12.4417481,7.10945891 C12.2965878,7.25373034 12.2031928,7.4467348 12.2031928,7.66018022 C12.2031928,8.09586589 12.5849018,8.44870342 13.0560536,8.44870342 C13.2936465,8.44870342 13.5073429,8.35613678 13.6624346,8.20987747 C13.6624346,8.20987747 14.5014121,7.41350318 15.2508647,6.70590049 L15.2548373,11.3105989 C12.7628251,11.6907446 10.8602391,13.6889792 10.8627168,16.1043862 C10.8647236,18.7888388 13.2170836,20.9625284 16.1146397,20.9605606 C19.0132401,20.9585928 21.3601328,18.7810078 21.3581056,16.0965953 C21.3560989,13.6820919 19.4506052,11.6848412 16.9585726,11.3095748 L16.954641,6.70881202 Z" id="Shape" fill="#FFAA00" fill-rule="nonzero"></path>
                <rect id="Rectangle" x="0" y="0" width="23" height="23"></rect>
            </g>
        </g>
    </g>
</svg>