<?xml version="1.0" encoding="UTF-8"?>
<svg width="23px" height="23px" viewBox="0 0 23 23" version="1.1" xmlns="http://www.w3.org/2000/svg" xmlns:xlink="http://www.w3.org/1999/xlink">
    <!-- Generator: Sketch 50.2 (55047) - http://www.bohemiancoding.com/sketch -->
    <title>personal_age_slice</title>
    <desc>Created with Sketch.</desc>
    <defs></defs>
    <g id="Page-1" stroke="none" stroke-width="1" fill="none" fill-rule="evenodd">
        <g id="Artboard" transform="translate(-16.000000, -351.000000)">
            <g id="personal_age" transform="translate(16.000000, 351.000000)">
                <path d="M20.0167015,21.1284516 L4.2451245,21.1284516 C3.53955394,21.1284516 3,20.5993668 3,19.9074866 L3,9.73277831 L21.261826,9.73277831 L21.261826,19.9074866 C21.261826,20.5993668 20.7222721,21.1284516 20.0167015,21.1284516 Z M7.5654565,11.76772 L6.73537351,11.76772 C6.02980295,11.76772 5.49024901,12.2968048 5.49024901,12.988685 C5.49024901,13.6805651 6.02980295,14.20965 6.73537351,14.20965 L7.5654565,14.20965 C8.27102705,14.20965 8.810581,13.6805651 8.810581,12.988685 C8.810581,12.2968048 8.27102705,11.76772 7.5654565,11.76772 Z M7.5654565,15.8376033 L6.73537351,15.8376033 C6.02980295,15.8376033 5.49024901,16.3666881 5.49024901,17.0585683 C5.49024901,17.7504485 6.02980295,18.2795333 6.73537351,18.2795333 L7.5654565,18.2795333 C8.27102705,18.2795333 8.810581,17.7504485 8.810581,17.0585683 C8.810581,16.3666881 8.27102705,15.8376033 7.5654565,15.8376033 Z M12.5459545,11.76772 L11.7158715,11.76772 C11.010301,11.76772 10.470747,12.2968048 10.470747,12.988685 C10.470747,13.6805651 11.010301,14.20965 11.7158715,14.20965 L12.5459545,14.20965 C13.2515251,14.20965 13.791079,13.6805651 13.791079,12.988685 C13.791079,12.2968048 13.2515251,11.76772 12.5459545,11.76772 Z M12.5459545,15.8376033 L11.7158715,15.8376033 C11.010301,15.8376033 10.470747,16.3666881 10.470747,17.0585683 C10.470747,17.7504485 11.010301,18.2795333 11.7158715,18.2795333 L12.5459545,18.2795333 C13.2515251,18.2795333 13.791079,17.7504485 13.791079,17.0585683 C13.791079,16.3666881 13.2515251,15.8376033 12.5459545,15.8376033 Z M17.5264525,11.76772 L16.6963695,11.76772 C15.990799,11.76772 15.451245,12.2968048 15.451245,12.988685 C15.451245,13.6805651 15.990799,14.20965 16.6963695,14.20965 L17.5264525,14.20965 C18.2320231,14.20965 18.771577,13.6805651 18.771577,12.988685 C18.771577,12.2968048 18.2320231,11.76772 17.5264525,11.76772 Z M17.5264525,15.8376033 L16.6963695,15.8376033 C15.990799,15.8376033 15.451245,16.3666881 15.451245,17.0585683 C15.451245,17.7504485 15.990799,18.2795333 16.6963695,18.2795333 L17.5264525,18.2795333 C18.2320231,18.2795333 18.771577,17.7504485 18.771577,17.0585683 C18.771577,16.3666881 18.2320231,15.8376033 17.5264525,15.8376033 Z M3,5.25590665 C3,4.56402647 3.53955394,4.03494165 4.2451245,4.03494165 L6.73537351,4.03494165 L6.73537351,6.47687164 C6.73537351,7.16875181 7.27492745,7.69783664 7.98049801,7.69783664 C8.68606857,7.69783664 9.22562251,7.16875181 9.22562251,6.47687164 L9.22562251,4.03494165 L15.0362035,4.03494165 L15.0362035,6.47687164 C15.0362035,7.16875181 15.5757575,7.69783664 16.281328,7.69783664 C16.9868986,7.69783664 17.5264525,7.16875181 17.5264525,6.47687164 L17.5264525,4.03494165 L20.0167015,4.03494165 C20.7222721,4.03494165 21.261826,4.56402647 21.261826,5.25590665 L21.261826,8.91880164 L3,8.91880164 L3,5.25590665 Z M16.281328,6.88385999 C16.0323031,6.88385999 15.8662865,6.72106466 15.8662865,6.47687164 L15.8662865,2.40698833 C15.8662865,2.16279533 16.0323031,2 16.281328,2 C16.5303529,2 16.6963695,2.16279533 16.6963695,2.40698833 L16.6963695,6.47687164 C16.6963695,6.72106464 16.5303529,6.88385997 16.281328,6.88385999 Z M7.98049801,6.88385999 C7.73147311,6.88385999 7.56545652,6.72106466 7.5654565,6.47687164 L7.5654565,2.40698833 C7.5654565,2.16279533 7.73147309,2 7.98049801,2 C8.22952293,2 8.39553951,2.16279533 8.39553951,2.40698833 L8.39553951,6.47687164 C8.39553951,6.72106464 8.22952291,6.88385997 7.98049801,6.88385999 Z" id="Shape" fill="#FF5F80" fill-rule="nonzero"></path>
                <rect id="Rectangle" x="0" y="0" width="23" height="23"></rect>
            </g>
        </g>
    </g>
</svg>