<?xml version="1.0" encoding="UTF-8"?>
<svg width="23px" height="23px" viewBox="0 0 23 23" version="1.1" xmlns="http://www.w3.org/2000/svg" xmlns:xlink="http://www.w3.org/1999/xlink">
    <!-- Generator: Sketch 50.2 (55047) - http://www.bohemiancoding.com/sketch -->
    <title>personal_phone_slice</title>
    <desc>Created with Sketch.</desc>
    <defs></defs>
    <g id="Page-1" stroke="none" stroke-width="1" fill="none" fill-rule="evenodd">
        <g id="Artboard" transform="translate(-16.000000, -395.000000)">
            <g id="personal_phone" transform="translate(16.000000, 395.000000)">
                <path d="M15.512591,1 L6.4669838,1 C5.10419544,1 4,2.08351137 4,3.4190171 L4,19.5458215 C4,20.8813272 5.1042197,21.9648624 6.4669838,21.9648624 L15.5126153,21.9648624 C16.8754037,21.9648624 17.9795991,20.8813272 17.9795991,19.5458215 L17.9795991,3.4190171 C17.9795991,2.08353519 16.8754037,1 15.512591,1 Z M10.1674474,1.80633903 L11.8121275,1.80633903 C12.0393883,1.80633903 12.2232793,1.98667834 12.2232793,2.20949664 C12.2232793,2.43233873 12.0393883,2.61267806 11.8121275,2.61267806 L10.1674474,2.61267806 C9.94021079,2.61267806 9.75629552,2.43233875 9.75629552,2.20949664 C9.75629552,1.98667837 9.94021079,1.80633903 10.1674474,1.80633903 Z M10.9897996,20.9797547 C10.4091729,20.9797547 9.93860902,20.5183402 9.93860902,19.9490029 C9.93860902,19.3796894 10.4091972,18.9182512 10.9897996,18.9182512 C11.570402,18.9182512 12.0409901,19.3797132 12.0409901,19.9490029 C12.0410144,20.518364 11.570402,20.9797547 10.9897996,20.9797547 Z M16.334919,17.5299858 C16.334919,17.7528279 16.151028,17.9331434 15.9237671,17.9331434 L6.0558077,17.9331434 C5.82854687,17.9331434 5.6446316,17.7528279 5.6446316,17.5299858 L5.6446316,3.82219852 C5.6446316,3.59935643 5.82854687,3.41904091 6.0558077,3.41904091 L15.9237671,3.41904091 C16.151028,3.41904091 16.334919,3.59938022 16.334919,3.82219852 L16.334919,17.5299858 Z" id="Shape" fill="#6FCD16" fill-rule="nonzero"></path>
                <rect id="Rectangle" x="0" y="0" width="23" height="23"></rect>
            </g>
        </g>
    </g>
</svg>