<?xml version="1.0" encoding="UTF-8"?>
<svg width="23px" height="23px" viewBox="0 0 23 23" version="1.1" xmlns="http://www.w3.org/2000/svg" xmlns:xlink="http://www.w3.org/1999/xlink">
    <!-- Generator: Sketch 50.2 (55047) - http://www.bohemiancoding.com/sketch -->
    <title>personal_order_slice</title>
    <desc>Created with Sketch.</desc>
    <defs></defs>
    <g id="Page-1" stroke="none" stroke-width="1" fill="none" fill-rule="evenodd">
        <g id="Artboard" transform="translate(-16.000000, -458.000000)">
            <g id="personal_order" transform="translate(16.000000, 458.000000)">
                <rect id="Rectangle" x="0" y="0" width="23" height="23"></rect>
                <path d="M13.5082237,3 L9.46092593,3 C8.96450519,3 8.56762501,3.43311295 8.56762501,3.9684651 C8.56762501,4.50505334 8.96523162,4.93944429 9.46092593,4.93944429 L13.5332637,4.93944429 C14.0047085,4.93944429 14.402187,4.50505334 14.402187,3.9684651 C14.4022938,3.43309198 14.0052854,3 13.5082237,3 Z M17.9029199,3.64639064 L15.8874752,3.64639064 C15.9079645,3.75250573 15.9198008,3.85983595 15.9198008,3.9684651 C15.9204204,4.78367614 15.3173445,5.58600255 14.5999648,5.58600255 L8.40813369,5.58600255 C7.65315116,5.58600255 7.0492634,4.78367616 7.0492634,3.9684651 C7.04998981,3.85983593 7.06182614,3.75250573 7.08231539,3.64639064 L5.04251439,3.64639064 C3.40284111,3.64639064 3,4.55793281 3,5.87290086 L3,18.8983439 C3,20.310921 3.57686075,21.101515 5.16632579,21.101515 L17.7789803,21.101515 C19.3684667,21.101515 20.1411396,20.4816479 20.1411396,18.8990562 L20.1411396,5.87287989 C20.1412678,4.55803755 19.417863,3.64649539 17.9029412,3.64649539 L17.9029412,3.64639064 L17.9029199,3.64639064 Z M15.8322248,16.5069938 L7.06776567,16.5069938 C6.74472364,16.5069938 6.42223713,16.1184011 6.42223713,15.8011243 C6.42223713,15.484916 6.69517773,15.214045 7.01824112,15.214045 L15.7576816,15.214045 C16.0806381,15.214045 16.3535574,15.4602571 16.3780633,15.8011243 C16.3780633,16.1185058 16.1551814,16.5069938 15.8322248,16.5069938 Z M15.8678406,13.0581385 L7.10327466,13.0581385 C6.78018991,13.0581385 6.57448564,12.7175227 6.57448564,12.4000154 C6.57448564,12.082613 6.84755444,11.7651895 7.17048963,11.7651895 L15.9099301,11.7651895 C16.2330148,11.7651895 16.5059341,12.0592739 16.5303118,12.4000154 C16.5303331,12.7174179 16.1901989,13.0581385 15.8678406,13.0581385 Z M15.8678406,9.51601075 L7.10327466,9.51601075 C6.78018991,9.51601075 6.57448564,9.17526925 6.57448564,8.85788773 C6.57448564,8.54046432 6.84755444,8.22306185 7.17048963,8.22306185 L15.9099301,8.22306185 C16.2330148,8.22306185 16.5059341,8.51727194 16.5303118,8.85788773 C16.5303331,9.17526925 16.1901989,9.51601075 15.8678406,9.51601075 Z" id="Shape" fill="#7F82FA" fill-rule="nonzero"></path>
            </g>
        </g>
    </g>
</svg>